<?xml version="1.0" encoding="UTF-8" standalone="no"?>
<svg
        xmlns:dc="http://purl.org/dc/elements/1.1/"
        xmlns:cc="http://creativecommons.org/ns#"
        xmlns:rdf="http://www.w3.org/1999/02/22-rdf-syntax-ns#"
        xmlns:sodipodi="http://sodipodi.sourceforge.net/DTD/sodipodi-0.dtd"
        xmlns:inkscape="http://www.inkscape.org/namespaces/inkscape"
        xmlns="http://www.w3.org/2000/svg"
        version="1.1"
        id="svg2"
        xml:space="preserve"
        width="5357.3335"
        height="1647.12"
        viewBox="0 0 5357.3335 1647.12"
        sodipodi:docname="vector file.eps"><metadata
     id="metadata8"><rdf:RDF><cc:Work
         rdf:about=""><dc:format>image/svg+xml</dc:format><dc:type
        rdf:resource="http://purl.org/dc/dcmitype/StillImage"/></cc:Work></rdf:RDF></metadata>
    <defs
            id="defs6"><clipPath
       clipPathUnits="userSpaceOnUse"
       id="clipPath20"><path
         d="M 0,0 H 40180 V 12353 H 0 Z"
         id="path18" /></clipPath>
        <clipPath
                clipPathUnits="userSpaceOnUse"
                id="clipPath26"><path
         d="m 7442.21,3228.96 v 0 C 7100.32,3774.7 7009,4440.9 7191.46,5058.53 l 2155,7294.87 2155.04,-7294.87 c 182.4,-617.63 91.1,-1283.83 -250.8,-1829.57 -880.5,-1405.56 -2928.01,-1405.56 -3808.49,0 z"
         id="path24" /></clipPath>
        <linearGradient
                x1="0"
                y1="0"
                x2="1"
                y2="0"
                gradientUnits="userSpaceOnUse"
                gradientTransform="matrix(0,-10562.5,-10562.5,0,9346.46,12311.2)"
                spreadMethod="pad"
                id="linearGradient34"><stop
         style="stop-opacity:1;stop-color:#f4b01d"
         offset="0"
         id="stop28" />
            <stop
                    style="stop-opacity:1;stop-color:#f4b01d"
                    offset="0.00537634"
                    id="stop30"/>
            <stop
                    style="stop-opacity:1;stop-color:#ec1d27"
                    offset="1"
                    id="stop32"/></linearGradient>
        <clipPath
                clipPathUnits="userSpaceOnUse"
                id="clipPath44"><path
         d="m 15663,4585.37 v 0 L 11556.4,6311.56 18692.2,5520.61 15663,4585.37"
         id="path42" /></clipPath>
        <linearGradient
                x1="0"
                y1="0"
                x2="1"
                y2="0"
                gradientUnits="userSpaceOnUse"
                gradientTransform="matrix(0,-10563.8,-10563.8,0,15124.7,13005.9)"
                spreadMethod="pad"
                id="linearGradient52"><stop
         style="stop-opacity:1;stop-color:#f4b01d"
         offset="0"
         id="stop46" />
            <stop
                    style="stop-opacity:1;stop-color:#f4b01d"
                    offset="0.00537634"
                    id="stop48"/>
            <stop
                    style="stop-opacity:1;stop-color:#ec1d27"
                    offset="1"
                    id="stop50"/></linearGradient>
        <clipPath
                clipPathUnits="userSpaceOnUse"
                id="clipPath62"><path
         d="m 11556.4,0 v 2483.13 l 3260.2,1382.75 908.2,385.77 364.3,154.71 -364.3,-154.71 3.5,-5.56 366.3,157.5 2597.6,1117.02 h 0.7 V 3274.06 l -0.7,2246.55 L 11556.4,0"
         id="path60" /></clipPath>
        <linearGradient
                x1="0"
                y1="0"
                x2="1"
                y2="0"
                gradientUnits="userSpaceOnUse"
                gradientTransform="matrix(-6464.77,-3167.08,-3167.08,6464.77,18409.4,4487.78)"
                spreadMethod="pad"
                id="linearGradient70"><stop
         style="stop-opacity:1;stop-color:#f4b01d"
         offset="0"
         id="stop64" />
            <stop
                    style="stop-opacity:1;stop-color:#f4b01d"
                    offset="0.00537634"
                    id="stop66"/>
            <stop
                    style="stop-opacity:1;stop-color:#ec1d27"
                    offset="1"
                    id="stop68"/></linearGradient>
        <clipPath
                clipPathUnits="userSpaceOnUse"
                id="clipPath80"><path
         d="m 16089.1,4406.36 v 0 l -238,99.9 -188.1,79.11 3029.2,935.24 -2414.4,-1030.99 4.8,-1.39 -193.5,-81.87"
         id="path78" /></clipPath>
        <linearGradient
                x1="0"
                y1="0"
                x2="1"
                y2="0"
                gradientUnits="userSpaceOnUse"
                gradientTransform="matrix(0,-10563.8,-10563.8,0,15124.7,13005.9)"
                spreadMethod="pad"
                id="linearGradient88"><stop
         style="stop-opacity:1;stop-color:#b3841c"
         offset="0"
         id="stop82" />
            <stop
                    style="stop-opacity:1;stop-color:#b3841c"
                    offset="0.00537634"
                    id="stop84"/>
            <stop
                    style="stop-opacity:1;stop-color:#b21d23"
                    offset="1"
                    id="stop86"/></linearGradient>
        <clipPath
                clipPathUnits="userSpaceOnUse"
                id="clipPath98"><path
         d="m 15728.3,4246.09 -3.5,5.56 364.3,154.71 193.5,81.87 -4.8,1.39 2414.4,1030.99 -2597.6,-1117.02 -366.3,-157.5 m 2963.9,1274.52 v 0"
         id="path96" /></clipPath>
        <linearGradient
                x1="0"
                y1="0"
                x2="1"
                y2="0"
                gradientUnits="userSpaceOnUse"
                gradientTransform="matrix(-6464.77,-3167.08,-3167.08,6464.77,18409.4,4487.78)"
                spreadMethod="pad"
                id="linearGradient106"><stop
         style="stop-opacity:1;stop-color:#b3841c"
         offset="0"
         id="stop100" />
            <stop
                    style="stop-opacity:1;stop-color:#b3841c"
                    offset="0.00537634"
                    id="stop102"/>
            <stop
                    style="stop-opacity:1;stop-color:#b21d23"
                    offset="1"
                    id="stop104"/></linearGradient>
        <clipPath
                clipPathUnits="userSpaceOnUse"
                id="clipPath116"><path
         d="m 3029.86,4585.37 v 0 L 7136.52,6311.56 0.695313,5520.61 7136.52,8812.74 V 6311.56 L 3029.86,4585.37"
         id="path114" /></clipPath>
        <linearGradient
                x1="0"
                y1="0"
                x2="1"
                y2="0"
                gradientUnits="userSpaceOnUse"
                gradientTransform="matrix(5e-7,-10563.8,10563.8,5e-7,3568.26,13005.9)"
                spreadMethod="pad"
                id="linearGradient124"><stop
         style="stop-opacity:1;stop-color:#f4b01d"
         offset="0"
         id="stop118" />
            <stop
                    style="stop-opacity:1;stop-color:#f4b01d"
                    offset="0.00537634"
                    id="stop120"/>
            <stop
                    style="stop-opacity:1;stop-color:#ec1d27"
                    offset="1"
                    id="stop122"/></linearGradient>
        <clipPath
                clipPathUnits="userSpaceOnUse"
                id="clipPath134"><path
         d="M 7136.52,0 0,3274.06 V 5520.61 H 0.695313 L 7136.52,0"
         id="path132" /></clipPath>
        <linearGradient
                x1="0"
                y1="0"
                x2="1"
                y2="0"
                gradientUnits="userSpaceOnUse"
                gradientTransform="matrix(6464.77,-3167.08,3167.08,6464.77,283.534,4487.78)"
                spreadMethod="pad"
                id="linearGradient142"><stop
         style="stop-opacity:1;stop-color:#f4b01d"
         offset="0"
         id="stop136" />
            <stop
                    style="stop-opacity:1;stop-color:#f4b01d"
                    offset="0.00537634"
                    id="stop138"/>
            <stop
                    style="stop-opacity:1;stop-color:#ec1d27"
                    offset="1"
                    id="stop140"/></linearGradient>
        <clipPath
                clipPathUnits="userSpaceOnUse"
                id="clipPath152"><path
         d="m 2611.16,4409.42 h -0.01 l 418.64,175.97 0.07,-0.02 -188.01,-79.11 -230.69,-96.84"
         id="path150" /></clipPath>
        <linearGradient
                x1="0"
                y1="0"
                x2="1"
                y2="0"
                gradientUnits="userSpaceOnUse"
                gradientTransform="matrix(5e-7,-10563.8,10563.8,5e-7,3568.26,13005.9)"
                spreadMethod="pad"
                id="linearGradient160"><stop
         style="stop-opacity:1;stop-color:#b3841c"
         offset="0"
         id="stop154" />
            <stop
                    style="stop-opacity:1;stop-color:#b3841c"
                    offset="0.00537634"
                    id="stop156"/>
            <stop
                    style="stop-opacity:1;stop-color:#b21d23"
                    offset="1"
                    id="stop158"/></linearGradient>
        <clipPath
                clipPathUnits="userSpaceOnUse"
                id="clipPath170"><path
         d="m 18692.2,5520.61 -7135.8,790.95 v 2501.18 l 7135.8,-3292.13"
         id="path168" /></clipPath>
        <linearGradient
                x1="0"
                y1="0"
                x2="1"
                y2="0"
                gradientUnits="userSpaceOnUse"
                gradientTransform="matrix(0,-10563.8,-10563.8,0,15124.7,13005.9)"
                spreadMethod="pad"
                id="linearGradient178"><stop
         style="stop-opacity:1;stop-color:#c08c1b"
         offset="0"
         id="stop172" />
            <stop
                    style="stop-opacity:1;stop-color:#c08c1b"
                    offset="0.00537634"
                    id="stop174"/>
            <stop
                    style="stop-opacity:1;stop-color:#be1e24"
                    offset="1"
                    id="stop176"/></linearGradient>
        <clipPath
                clipPathUnits="userSpaceOnUse"
                id="clipPath188"><path
         d="m 11556.4,0 7135.8,5520.61 0.7,-2246.55 L 11556.4,0"
         id="path186" /></clipPath>
        <linearGradient
                x1="0"
                y1="0"
                x2="1"
                y2="0"
                gradientUnits="userSpaceOnUse"
                gradientTransform="matrix(-6464.77,-3167.08,-3167.08,6464.77,18409.4,4487.78)"
                spreadMethod="pad"
                id="linearGradient196"><stop
         style="stop-opacity:1;stop-color:#c08c1b"
         offset="0"
         id="stop190" />
            <stop
                    style="stop-opacity:1;stop-color:#c08c1b"
                    offset="0.00537634"
                    id="stop192"/>
            <stop
                    style="stop-opacity:1;stop-color:#be1e24"
                    offset="1"
                    id="stop194"/></linearGradient>
        <clipPath
                clipPathUnits="userSpaceOnUse"
                id="clipPath208"><path
         d="M 7136.52,0 V 0 L 0.695313,5520.61 2598.32,4403.59 l 366.33,-157.5 3.47,5.56 -364.25,154.71 364.25,-154.71 908.2,-385.77 3260.2,-1382.75 V 0"
         id="path206" /></clipPath>
        <linearGradient
                x1="0"
                y1="0"
                x2="1"
                y2="0"
                gradientUnits="userSpaceOnUse"
                gradientTransform="matrix(6464.77,-3167.08,3167.08,6464.77,283.534,4487.78)"
                spreadMethod="pad"
                id="linearGradient216"><stop
         style="stop-opacity:1;stop-color:#c08c1b"
         offset="0"
         id="stop210" />
            <stop
                    style="stop-opacity:1;stop-color:#c08c1b"
                    offset="0.00537634"
                    id="stop212"/>
            <stop
                    style="stop-opacity:1;stop-color:#be1e24"
                    offset="1"
                    id="stop214"/></linearGradient>
        <clipPath
                clipPathUnits="userSpaceOnUse"
                id="clipPath226"><path
         d="m 2603.87,4406.36 7.28,3.06 h 0.01 l -7.29,-3.06 m 0,0 -193.58,81.87 1.39,0.4 192.19,-82.27"
         id="path224" /></clipPath>
        <linearGradient
                x1="0"
                y1="0"
                x2="1"
                y2="0"
                gradientUnits="userSpaceOnUse"
                gradientTransform="matrix(5e-7,-10563.8,10563.8,5e-7,3568.26,13005.9)"
                spreadMethod="pad"
                id="linearGradient234"><stop
         style="stop-opacity:1;stop-color:#8c671e"
         offset="0"
         id="stop228" />
            <stop
                    style="stop-opacity:1;stop-color:#8c671e"
                    offset="0.00537634"
                    id="stop230"/>
            <stop
                    style="stop-opacity:1;stop-color:#8c191e"
                    offset="1"
                    id="stop232"/></linearGradient>
        <clipPath
                clipPathUnits="userSpaceOnUse"
                id="clipPath244"><path
         d="M 2964.65,4246.09 2598.32,4403.59 0.695313,5520.61 2411.68,4488.63 l -1.39,-0.4 193.58,-81.87 364.25,-154.71 -3.47,-5.56 M 0.695313,5520.61 v 0"
         id="path242" /></clipPath>
        <linearGradient
                x1="0"
                y1="0"
                x2="1"
                y2="0"
                gradientUnits="userSpaceOnUse"
                gradientTransform="matrix(6464.77,-3167.08,3167.08,6464.77,283.534,4487.78)"
                spreadMethod="pad"
                id="linearGradient252"><stop
         style="stop-opacity:1;stop-color:#8c671e"
         offset="0"
         id="stop246" />
            <stop
                    style="stop-opacity:1;stop-color:#8c671e"
                    offset="0.00537634"
                    id="stop248"/>
            <stop
                    style="stop-opacity:1;stop-color:#8c191e"
                    offset="1"
                    id="stop250"/></linearGradient>
        <clipPath
                clipPathUnits="userSpaceOnUse"
                id="clipPath262"><path
         d="M 3029.86,4585.37 0.695313,5520.61 7136.52,6311.56 3029.79,4585.39"
         id="path260" /></clipPath>
        <linearGradient
                x1="0"
                y1="0"
                x2="1"
                y2="0"
                gradientUnits="userSpaceOnUse"
                gradientTransform="matrix(5e-7,-10563.8,10563.8,5e-7,3568.26,13005.9)"
                spreadMethod="pad"
                id="linearGradient270"><stop
         style="stop-opacity:1;stop-color:#c08c1b"
         offset="0"
         id="stop264" />
            <stop
                    style="stop-opacity:1;stop-color:#c08c1b"
                    offset="0.00537634"
                    id="stop266"/>
            <stop
                    style="stop-opacity:1;stop-color:#be1e24"
                    offset="1"
                    id="stop268"/></linearGradient>
        <clipPath
                clipPathUnits="userSpaceOnUse"
                id="clipPath280"><path
         d="M 2611.15,4409.42 0.695313,5520.61 3029.86,4585.37 2611.15,4409.42"
         id="path278" /></clipPath>
        <linearGradient
                x1="0"
                y1="0"
                x2="1"
                y2="0"
                gradientUnits="userSpaceOnUse"
                gradientTransform="matrix(5e-7,-10563.8,10563.8,5e-7,3568.26,13005.9)"
                spreadMethod="pad"
                id="linearGradient288"><stop
         style="stop-opacity:1;stop-color:#8c671e"
         offset="0"
         id="stop282" />
            <stop
                    style="stop-opacity:1;stop-color:#8c671e"
                    offset="0.00537634"
                    id="stop284"/>
            <stop
                    style="stop-opacity:1;stop-color:#8c191e"
                    offset="1"
                    id="stop286"/></linearGradient>
        <clipPath
                clipPathUnits="userSpaceOnUse"
                id="clipPath298"><path
         d="m 2603.87,4406.36 v 0 l -192.19,82.27 3.47,0.99 L 0.695313,5520.61 2611.15,4409.42 l -7.28,-3.06"
         id="path296" /></clipPath>
        <linearGradient
                x1="0"
                y1="0"
                x2="1"
                y2="0"
                gradientUnits="userSpaceOnUse"
                gradientTransform="matrix(5e-7,-10563.8,10563.8,5e-7,3568.26,13005.9)"
                spreadMethod="pad"
                id="linearGradient306"><stop
         style="stop-opacity:1;stop-color:#6e511c"
         offset="0"
         id="stop300" />
            <stop
                    style="stop-opacity:1;stop-color:#6e511c"
                    offset="0.00537634"
                    id="stop302"/>
            <stop
                    style="stop-opacity:1;stop-color:#6e1418"
                    offset="1"
                    id="stop304"/></linearGradient>
        <clipPath
                clipPathUnits="userSpaceOnUse"
                id="clipPath316"><path
         d="m 2603.87,4406.36 v 0 M 2411.68,4488.63 0.695313,5520.61 2415.15,4489.62 l -3.47,-0.99"
         id="path314" /></clipPath>
        <linearGradient
                x1="0"
                y1="0"
                x2="1"
                y2="0"
                gradientUnits="userSpaceOnUse"
                gradientTransform="matrix(6464.77,-3167.08,3167.08,6464.77,283.534,4487.78)"
                spreadMethod="pad"
                id="linearGradient324"><stop
         style="stop-opacity:1;stop-color:#6e511c"
         offset="0"
         id="stop318" />
            <stop
                    style="stop-opacity:1;stop-color:#6e511c"
                    offset="0.00537634"
                    id="stop320"/>
            <stop
                    style="stop-opacity:1;stop-color:#6e1418"
                    offset="1"
                    id="stop322"/></linearGradient>
        <clipPath
                clipPathUnits="userSpaceOnUse"
                id="clipPath340"><path
         d="m 35019.9,6483.71 v -785.89 h 786.2 v 785.89 z"
         id="path338" /></clipPath>
        <linearGradient
                x1="0"
                y1="0"
                x2="1"
                y2="0"
                gradientUnits="userSpaceOnUse"
                gradientTransform="matrix(6.36139,337.154,337.154,-6.36139,35404.4,5636.49)"
                spreadMethod="pad"
                id="linearGradient348"><stop
         style="stop-opacity:1;stop-color:#f4b01d"
         offset="0"
         id="stop342" />
            <stop
                    style="stop-opacity:1;stop-color:#f4b01d"
                    offset="0.00537634"
                    id="stop344"/>
            <stop
                    style="stop-opacity:1;stop-color:#ec1d27"
                    offset="1"
                    id="stop346"/></linearGradient></defs>
    <sodipodi:namedview
            pagecolor="#ffffff"
            bordercolor="#666666"
            borderopacity="1"
            objecttolerance="10"
            gridtolerance="10"
            guidetolerance="10"
            inkscape:pageopacity="0"
            inkscape:pageshadow="2"
            inkscape:window-width="640"
            inkscape:window-height="480"
            id="namedview4"/>
    <g
            id="g10"
            inkscape:groupmode="layer"
            inkscape:label="ink_ext_XXXXXX"
            transform="matrix(1.3333333,0,0,-1.3333333,0,1647.12)"><g
       id="g12"
       transform="scale(0.1)"><g
         id="g14"><g
           id="g16"
           clip-path="url(#clipPath20)"><g
             id="g22"
             clip-path="url(#clipPath26)"><path
               d="m 9332,2174 v 1 h -59 v 1 h -22 v 1 h -22 v 1 h -21 v 1 h -14 v 1 h -13 v 1 h -13 v 1 h -14 v 1 h -13 v 1 h -10 v 1 h -9 v 1 h -10 v 1 h -9 v 1 h -10 v 1 h -9 v 1 h -10 v 1 h -7 v 1 h -8 v 1 h -7 v 1 h -7 v 1 h -8 v 1 h -7 v 1 h -7 v 1 h -8 v 1 h -7 v 1 h -7 v 1 h -6 v 1 h -6 v 1 h -6 v 1 h -6 v 1 h -6 v 1 h -6 v 1 h -6 v 1 h -6 v 1 h -6 v 1 h -6 v 1 h -6 v 1 h -5 v 1 h -5 v 1 h -5 v 1 h -5 v 1 h -5 v 1 h -5 v 1 h -5 v 1 h -5 v 1 h -5 v 1 h -5 v 1 h -5 v 1 h -5 v 1 h -5 v 1 h -5 v 1 h -4 v 1 h -4 v 1 h -5 v 1 h -4 v 1 h -4 v 1 h -5 v 1 h -4 v 1 h -4 v 1 h -5 v 1 h -4 v 1 h -5 v 1 h -4 v 1 h -4 v 1 h -5 v 1 h -4 v 1 h -4 v 1 h -3 v 1 h -4 v 1 h -4 v 1 h -4 v 1 h -4 v 1 h -3 v 1 h -4 v 1 h -4 v 1 h -4 v 1 h -4 v 1 h -3 v 1 h -4 v 1 h -4 v 1 h -4 v 1 h -4 v 1 h -4 v 1 h -3 v 1 h -3 v 1 h -4 v 1 h -3 v 1 h -4 v 1 h -3 v 1 h -3 v 1 h -4 v 1 h -3 v 1 h -3 v 1 h -4 v 1 h -3 v 1 h -4 v 1 h -3 v 1 h -3 v 1 h -4 v 1 h -3 v 1 h -4 v 1 h -3 v 1 h -3 v 1 h -3 v 1 h -3 v 1 h -3 v 1 h -3 v 1 h -3 v 1 h -3 v 1 h -3 v 1 h -3 v 1 h -4 v 1 h -3 v 1 h -3 v 1 h -3 v 1 h -3 v 1 h -3 v 1 h -3 v 1 h -3 v 1 h -3 v 1 h -3 v 1 h -3 v 1 h -3 v 1 h -3 v 1 h -3 v 1 h -3 v 1 h -2 v 1 h -3 v 1 h -3 v 1 h -3 v 1 h -2 v 1 h -3 v 1 h -3 v 1 h -3 v 1 h -2 v 1 h -3 v 1 h -3 v 1 h -3 v 1 h -2 v 1 h -3 v 1 h -3 v 1 h -3 v 1 h -2 v 1 h -3 v 1 h -3 v 1 h -3 v 1 h -2 v 1 h -3 v 1 h -3 v 1 h -2 v 1 h -3 v 1 h -2 v 1 h -3 v 1 h -2 v 1 h -3 v 1 h -2 v 1 h -3 v 1 h -2 v 1 h -3 v 1 h -2 v 1 h -3 v 1 h -2 v 1 h -3 v 1 h -2 v 1 h -3 v 1 h -2 v 1 h -3 v 1 h -2 v 1 h -3 v 1 h -2 v 1 h -3 v 1 h -2 v 1 h -3 v 1 h -2 v 1 h -2 v 1 h -3 v 1 h -2 v 1 h -2 v 1 h -3 v 1 h -2 v 1 h -2 v 1 h -2 v 1 h -3 v 1 h -2 v 1 h -2 v 1 h -3 v 1 h -2 v 1 h -2 v 1 h -3 v 1 h -2 v 1 h -2 v 1 h -2 v 1 h -3 v 1 h -2 v 1 h -2 v 1 h -3 v 1 h -2 v 1 h -2 v 1 h -2 v 1 h -3 v 1 h -2 v 1 h -2 v 1 h -2 v 1 h -3 v 1 h -2 v 1 h -2 v 1 h -2 v 1 h -2 v 1 h -2 v 1 h -2 v 1 h -2 v 1 h -2 v 1 h -2 v 1 h -3 v 1 h -2 v 1 h -2 v 1 h -2 v 1 h -2 v 1 h -2 v 1 h -2 v 1 h -2 v 1 h -2 v 1 h -3 v 1 h -2 v 1 h -2 v 1 h -2 v 1 h -2 v 1 h -2 v 1 h -2 v 1 h -2 v 1 h -2 v 1 h -3 v 1 h -1 v 1 h -2 v 1 h -2 v 1 h -2 v 1 h -2 v 1 h -2 v 1 h -2 v 1 h -2 v 1 h -2 v 1 h -2 v 1 h -2 v 1 h -2 v 1 h -2 v 1 h -2 v 1 h -2 v 1 h -2 v 1 h -2 v 1 h -2 v 1 h -2 v 1 h -1 v 1 h -2 v 1 h -2 v 1 h -2 v 1 h -2 v 1 h -2 v 1 h -2 v 1 h -2 v 1 h -2 v 1 h -2 v 1 h -2 v 1 h -2 v 1 h -2 v 1 h -2 v 1 h -1 v 1 h -2 v 1 h -2 v 1 h -2 v 1 h -2 v 1 h -1 v 1 h -2 v 1 h -2 v 1 h -2 v 1 h -2 v 1 h -1 v 1 h -2 v 1 h -2 v 1 h -2 v 1 h -2 v 1 h -1 v 1 h -2 v 1 h -2 v 1 h -2 v 1 h -2 v 1 h -2 v 1 h -1 v 1 h -2 v 1 h -2 v 1 h -2 v 1 h -2 v 1 h -1 v 1 h -2 v 1 h -2 v 1 h -2 v 1 h -2 v 1 h -1 v 1 h -2 v 1 h -2 v 1 h -1 v 1 h -2 v 1 h -2 v 1 h -1 v 1 h -2 v 1 h -2 v 1 h -2 v 1 h -1 v 1 h -2 v 1 h -2 v 1 h -1 v 1 h -2 v 1 h -2 v 1 h -1 v 1 h -2 v 1 h -2 v 1 h -1 v 1 h -2 v 1 h -2 v 1 h -1 v 1 h -2 v 1 h -2 v 1 h -1 v 1 h -2 v 1 h -2 v 1 h -1 v 1 h -2 v 1 h -2 v 1 h -1 v 1 h -2 v 1 h -2 v 1 h -1 v 1 h -2 v 1 h -2 v 1 h -1 v 1 h -2 v 1 h -2 v 1 h -1 v 1 h -2 v 1 h -1 v 1 h -2 v 1 h -1 v 1 h -2 v 1 h -1 v 1 h -2 v 1 h -2 v 1 h -1 v 1 h -2 v 1 h -1 v 1 h -2 v 1 h -1 v 1 h -2 v 1 h -2 v 1 h -1 v 1 h -2 v 1 h -1 v 1 h -2 v 1 h -1 v 1 h -2 v 1 h -1 v 1 h -2 v 1 h -2 v 1 h -1 v 1 h -2 v 1 h -1 v 1 h -2 v 1 h -1 v 1 h -2 v 1 h -1 v 1 h -2 v 1 h -2 v 1 h -1 v 1 h -2 v 1 h -1 v 1 h -2 v 1 h -1 v 1 h -2 v 1 h -1 v 1 h -1 v 1 h -2 v 1 h -1 v 1 h -2 v 1 h -1 v 1 h -2 v 1 h -1 v 1 h -2 v 1 h -1 v 1 h -2 v 1 h -1 v 1 h -1 v 1 h -2 v 1 h -1 v 1 h -2 v 1 h -1 v 1 h -2 v 1 h -1 v 1 h -2 v 1 h -1 v 1 h -2 v 1 h -1 v 1 h -1 v 1 h -2 v 1 h -1 v 1 h -2 v 1 h -1 v 1 h -2 v 1 h -1 v 1 h -2 v 1 h -1 v 1 h -2 v 1 h -1 v 1 h -1 v 1 h -2 v 1 h -1 v 1 h -2 v 1 h -1 v 1 h -1 v 1 h -2 v 1 h -1 v 1 h -1 v 1 h -2 v 1 h -1 v 1 h -1 v 1 h -2 v 1 h -1 v 1 h -2 v 1 h -1 v 1 h -1 v 1 h -2 v 1 h -1 v 1 h -1 v 1 h -2 v 1 h -1 v 1 h -1 v 1 h -2 v 1 h -1 v 1 h -2 v 1 h -1 v 1 h -1 v 1 h -2 v 1 h -1 v 1 h -1 v 1 h -2 v 1 h -1 v 1 h -1 v 1 h -2 v 1 h -1 v 1 h -1 v 1 h -2 v 1 h -1 v 1 h -2 v 1 h -1 v 1 h -1 v 1 h -2 v 1 h -1 v 1 h -1 v 1 h -2 v 1 h -1 v 1 h -1 v 1 h -1 v 1 h -2 v 1 h -1 v 1 h -1 v 1 h -1 v 1 h -2 v 1 h -1 v 1 h -1 v 1 h -2 v 1 h -1 v 1 h -1 v 1 h -1 v 1 h -2 v 1 h -1 v 1 h -1 v 1 h -1 v 1 h -2 v 1 h -1 v 1 h -1 v 1 h -1 v 1 h -2 v 1 h -1 v 1 h -1 v 1 h -2 v 1 h -1 v 1 h -1 v 1 h -1 v 1 h -2 v 1 h -1 v 1 h -1 v 1 h -1 v 1 h -2 v 1 h -1 v 1 h -1 v 1 h -2 v 1 h -1 v 1 h -1 v 1 h -1 v 1 h -2 v 1 h -1 v 1 h -1 v 1 h -1 v 1 h -1 v 1 h -2 v 1 h -1 v 1 h -1 v 1 h -1 v 1 h -1 v 1 h -2 v 1 h -1 v 1 h -1 v 1 h -1 v 1 h -1 v 1 h -2 v 1 h -1 v 1 h -1 v 1 h -1 v 1 h -1 v 1 h -2 v 1 h -1 v 1 h -1 v 1 h -1 v 1 h -1 v 1 h -1 v 1 h -2 v 1 h -1 v 1 h -1 v 1 h -1 v 1 h -1 v 1 h -2 v 1 h -1 v 1 h -1 v 1 h -1 v 1 h -1 v 1 h -2 v 1 h -1 v 1 h -1 v 1 h -1 v 1 h -1 v 1 h -2 v 1 h -1 v 1 h -1 v 1 h -1 v 1 h -1 v 1 h -1 v 1 h -2 v 1 h -1 v 1 h -1 v 1 h -1 v 1 h -1 v 1 h -1 v 1 h -1 v 1 h -1 v 1 h -2 v 1 h -1 v 1 h -1 v 1 h -1 v 1 h -1 v 1 h -1 v 1 h -1 v 1 h -1 v 1 h -1 v 1 h -2 v 1 h -1 v 1 h -1 v 1 h -1 v 1 h -1 v 1 h -1 v 1 h -1 v 1 h -1 v 1 h -2 v 1 h -1 v 1 h -1 v 1 h -1 v 1 h -1 v 1 h -1 v 1 h -1 v 1 h -1 v 1 h -1 v 1 h -2 v 1 h -1 v 1 h -1 v 1 h -1 v 1 h -1 v 1 h -1 v 1 h -1 v 1 h -1 v 1 h -1 v 1 h -2 v 1 h -1 v 1 h -1 v 1 h -1 v 1 h -1 v 1 h -1 v 1 h -1 v 1 h -1 v 1 h -1 v 1 h -1 v 1 h -1 v 1 h -1 v 1 h -1 v 1 h -2 v 1 h -1 v 1 h -1 v 1 h -1 v 1 h -1 v 1 h -1 v 1 h -1 v 1 h -1 v 1 h -1 v 1 h -1 v 1 h -1 v 1 h -1 v 1 h -1 v 1 h -1 v 1 h -1 v 1 h -1 v 1 h -1 v 1 h -1 v 1 h -1 v 1 h -1 v 1 h -1 v 1 h -1 v 1 h -1 v 1 h -1 v 1 h -2 v 1 h -1 v 1 h -1 v 1 h -1 v 1 h -1 v 1 h -1 v 1 h -1 v 1 h -1 v 1 h -1 v 1 h -1 v 1 h -1 v 1 h -1 v 1 h -1 v 1 h -1 v 1 h -1 v 1 h -1 v 1 h -1 v 1 h -1 v 1 h -1 v 1 h -1 v 1 h -1 v 1 h -1 v 1 h -1 v 1 h -1 v 1 h -1 v 1 h -1 v 1 h -1 v 1 h -1 v 1 h -1 v 1 h -1 v 1 h -1 v 1 h -1 v 1 h -1 v 1 h -1 v 1 h -1 v 1 h -1 v 1 h -1 v 1 h -1 v 1 h -1 v 1 h -1 v 1 h -1 v 1 h -1 v 1 h -1 v 1 h -1 v 1 h -1 v 1 h -1 v 1 h -1 v 1 h -1 v 1 h -1 v 1 h -1 v 1 h -1 v 1 h -1 v 1 h -1 v 1 h -1 v 1 h -1 v 2 h -1 v 1 h -1 v 1 h -1 v 1 h -1 v 1 h -1 v 1 h -1 v 1 h -1 v 1 h -1 v 1 h -1 v 1 h -1 v 1 h -1 v 1 h -1 v 1 h -1 v 1 h -1 v 1 h -1 v 1 h -1 v 1 h -1 v 1 h -1 v 1 h -1 v 1 h -1 v 1 h -1 v 1 h -1 v 1 h -1 v 2 h -1 v 1 h -1 v 1 h -1 v 1 h -1 v 1 h -1 v 1 h -1 v 1 h -1 v 1 h -1 v 1 h -1 v 1 h -1 v 1 h -1 v 2 h -1 v 1 h -1 v 1 h -1 v 1 h -1 v 1 h -1 v 1 h -1 v 1 h -1 v 1 h -1 v 1 h -1 v 1 h -1 v 2 h -1 v 1 h -1 v 1 h -1 v 1 h -1 v 1 h -1 v 1 h -1 v 1 h -1 v 1 h -1 v 1 h -1 v 1 h -1 v 1 h -1 v 2 h -1 v 1 h -1 v 1 h -1 v 1 h -1 v 1 h -1 v 1 h -1 v 1 h -1 v 1 h -1 v 1 h -1 v 1 h -1 v 1 h -1 v 2 h -1 v 1 h -1 v 1 h -1 v 1 h -1 v 1 h -1 v 1 h -1 v 2 h -1 v 1 h -1 v 1 h -1 v 1 h -1 v 1 h -1 v 1 h -1 v 2 h -1 v 1 h -1 v 1 h -1 v 1 h -1 v 1 h -1 v 1 h -1 v 2 h -1 v 1 h -1 v 1 h -1 v 1 h -1 v 1 h -1 v 1 h -1 v 2 h -1 v 1 h -1 v 1 h -1 v 1 h -1 v 1 h -1 v 1 h -1 v 2 h -1 v 1 h -1 v 1 h -1 v 1 h -1 v 1 h -1 v 1 h -1 v 2 h -1 v 1 h -1 v 1 h -1 v 1 h -1 v 1 h -1 v 2 h -1 v 1 h -1 v 1 h -1 v 1 h -1 v 1 h -1 v 1 h -1 v 2 h -1 v 1 h -1 v 1 h -1 v 1 h -1 v 1 h -1 v 2 h -1 v 1 h -1 v 1 h -1 v 1 h -1 v 2 h -1 v 1 h -1 v 1 h -1 v 1 h -1 v 2 h -1 v 1 h -1 v 1 h -1 v 1 h -1 v 2 h -1 v 1 h -1 v 1 h -1 v 1 h -1 v 2 h -1 v 1 h -1 v 1 h -1 v 1 h -1 v 2 h -1 v 1 h -1 v 1 h -1 v 1 h -1 v 2 h -1 v 1 h -1 v 1 h -1 v 1 h -1 v 2 h -1 v 1 h -1 v 1 h -1 v 1 h -1 v 2 h -1 v 1 h -1 v 1 h -1 v 1 h -1 v 2 h -1 v 1 h -1 v 1 h -1 v 1 h -1 v 2 h -1 v 1 h -1 v 1 h -1 v 1 h -1 v 2 h -1 v 1 h -1 v 1 h -1 v 2 h -1 v 1 h -1 v 1 h -1 v 2 h -1 v 1 h -1 v 1 h -1 v 2 h -1 v 1 h -1 v 1 h -1 v 2 h -1 v 1 h -1 v 1 h -1 v 2 h -1 v 1 h -1 v 1 h -1 v 2 h -1 v 1 h -1 v 1 h -1 v 2 h -1 v 1 h -1 v 2 h -1 v 1 h -1 v 1 h -1 v 2 h -1 v 1 h -1 v 1 h -1 v 2 h -1 v 1 h -1 v 1 h -1 v 2 h -1 v 1 h -1 v 1 h -1 v 2 h -1 v 1 h -1 v 1 h -1 v 2 h -1 v 1 h -1 v 1 h -1 v 2 h -1 v 1 h -1 v 1 h -1 v 2 h -1 v 1 h -1 v 1 h -1 v 2 h -1 v 1 h -1 v 2 h -1 v 1 h -1 v 2 h -1 v 1 h -1 v 1 h -1 v 2 h -1 v 1 h -1 v 2 h -1 v 1 h -1 v 2 h -1 v 1 h -1 v 1 h -1 v 2 h -1 v 1 h -1 v 2 h -1 v 1 h -1 v 2 h -1 v 1 h -1 v 2 h -1 v 1 h -1 v 1 h -1 v 2 h -1 v 1 h -1 v 2 h -1 v 1 h -1 v 2 h -1 v 1 h -1 v 1 h -1 v 2 h -1 v 1 h -1 v 2 h -1 v 1 h -1 v 2 h -1 v 1 h -1 v 1 h -1 v 2 h -1 v 1 h -1 v 2 h -1 v 1 h -1 v 2 h -1 v 1 h -1 v 2 h -1 v 1 h -1 v 2 h -1 v 1 h -1 v 2 h -1 v 1 h -1 v 2 h -1 v 1 h -1 v 2 h -1 v 1 h -1 v 2 h -1 v 1 h -1 v 2 h -1 v 1 h -1 v 2 h -1 v 1 h -1 v 2 h -1 v 2 h -1 v 1 h -1 v 2 h -1 v 1 h -1 v 2 h -1 v 1 h -1 v 2 h -1 v 1 h -1 v 2 h -1 v 1 h -1 v 2 h -1 v 1 h -1 v 2 h -1 v 1 h -1 v 2 h -1 v 1 h -1 v 2 h -1 v 2 h -1 v 1 h -1 v 2 h -1 v 1 h -1 v 2 h -1 v 2 h -1 v 1 h -1 v 2 h -1 v 1 h -1 v 2 h -1 v 2 h -1 v 1 h -1 v 2 h -1 v 1 h -1 v 2 h -1 v 2 h -1 v 1 h -1 v 2 h -1 v 2 h -1 v 1 h -1 v 2 h -1 v 2 h -1 v 1 h -1 v 2 h -1 v 2 h -1 v 1 h -1 v 2 h -1 v 2 h -1 v 1 h -1 v 2 h -1 v 2 h -1 v 1 h -1 v 2 h -1 v 1 h -1 v 2 h -1 v 2 h -1 v 1 h -1 v 2 h -1 v 2 h -1 v 2 h -1 v 1 h -1 v 2 h -1 v 2 h -1 v 2 h -1 v 1 h -1 v 2 h -1 v 2 h -1 v 2 h -1 v 1 h -1 v 2 h -1 v 2 h -1 v 2 h -1 v 1 h -1 v 2 h -1 v 2 h -1 v 2 h -1 v 1 h -1 v 2 h -1 v 2 h -1 v 2 h -1 v 1 h -1 v 2 h -1 v 2 h -1 v 2 h -1 v 1 h -1 v 2 h -1 v 2 h -1 v 1 h -1 v 2 h -1 v 2 h -1 v 2 h -1 v 2 h -1 v 2 h -1 v 2 h -1 v 1 h -1 v 2 h -1 v 2 h -1 v 2 h -1 v 2 h -1 v 2 h -1 v 2 h -1 v 1 h -1 v 2 h -1 v 2 h -1 v 2 h -1 v 2 h -1 v 2 h -1 v 2 h -1 v 2 h -1 v 1 h -1 v 2 h -1 v 2 h -1 v 2 h -1 v 2 h -1 v 2 h -1 v 2 h -1 v 1 h -1 v 2 h -1 v 2 h -1 v 2 h -1 v 2 h -1 v 2 h -1 v 2 h -1 v 2 h -1 v 2 h -1 v 2 h -1 v 2 h -1 v 2 h -1 v 2 h -1 v 2 h -1 v 2 h -1 v 2 h -1 v 2 h -1 v 2 h -1 v 2 h -1 v 2 h -1 v 2 h -1 v 2 h -1 v 2 h -1 v 2 h -1 v 2 h -1 v 2 h -1 v 2 h -1 v 2 h -1 v 2 h -1 v 2 h -1 v 2 h -1 v 2 h -1 v 3 h -1 v 2 h -1 v 2 h -1 v 2 h -1 v 2 h -1 v 2 h -1 v 2 h -1 v 3 h -1 v 2 h -1 v 2 h -1 v 2 h -1 v 2 h -1 v 2 h -1 v 2 h -1 v 2 h -1 v 3 h -1 v 2 h -1 v 2 h -1 v 2 h -1 v 2 h -1 v 2 h -1 v 2 h -1 v 3 h -1 v 2 h -1 v 2 h -1 v 2 h -1 v 3 h -1 v 2 h -1 v 2 h -1 v 3 h -1 v 2 h -1 v 2 h -1 v 2 h -1 v 3 h -1 v 2 h -1 v 2 h -1 v 3 h -1 v 2 h -1 v 2 h -1 v 2 h -1 v 3 h -1 v 2 h -1 v 2 h -1 v 3 h -1 v 2 h -1 v 2 h -1 v 3 h -1 v 2 h -1 v 3 h -1 v 2 h -1 v 3 h -1 v 2 h -1 v 2 h -1 v 3 h -1 v 2 h -1 v 3 h -1 v 2 h -1 v 3 h -1 v 2 h -1 v 3 h -1 v 2 h -1 v 3 h -1 v 2 h -1 v 2 h -1 v 3 h -1 v 2 h -1 v 3 h -1 v 2 h -1 v 3 h -1 v 3 h -1 v 2 h -1 v 3 h -1 v 3 h -1 v 2 h -1 v 3 h -1 v 3 h -1 v 2 h -1 v 3 h -1 v 3 h -1 v 2 h -1 v 3 h -1 v 2 h -1 v 3 h -1 v 3 h -1 v 2 h -1 v 3 h -1 v 3 h -1 v 2 h -1 v 3 h -1 v 3 h -1 v 3 h -1 v 3 h -1 v 3 h -1 v 3 h -1 v 2 h -1 v 3 h -1 v 3 h -1 v 3 h -1 v 3 h -1 v 3 h -1 v 3 h -1 v 3 h -1 v 3 h -1 v 2 h -1 v 3 h -1 v 3 h -1 v 3 h -1 v 3 h -1 v 3 h -1 v 3 h -1 v 3 h -1 v 3 h -1 v 4 h -1 v 3 h -1 v 3 h -1 v 3 h -1 v 3 h -1 v 3 h -1 v 4 h -1 v 3 h -1 v 3 h -1 v 3 h -1 v 3 h -1 v 3 h -1 v 3 h -1 v 4 h -1 v 3 h -1 v 4 h -1 v 3 h -1 v 3 h -1 v 4 h -1 v 3 h -1 v 4 h -1 v 3 h -1 v 4 h -1 v 3 h -1 v 4 h -1 v 3 h -1 v 4 h -1 v 3 h -1 v 4 h -1 v 3 h -1 v 4 h -1 v 4 h -1 v 3 h -1 v 4 h -1 v 4 h -1 v 4 h -1 v 4 h -1 v 4 h -1 v 3 h -1 v 4 h -1 v 4 h -1 v 4 h -1 v 4 h -1 v 4 h -1 v 3 h -1 v 5 h -1 v 4 h -1 v 4 h -1 v 4 h -1 v 5 h -1 v 4 h -1 v 4 h -1 v 5 h -1 v 4 h -1 v 4 h -1 v 5 h -1 v 4 h -1 v 4 h -1 v 5 h -1 v 5 h -1 v 4 h -1 v 5 h -1 v 5 h -1 v 5 h -1 v 5 h -1 v 5 h -1 v 5 h -1 v 5 h -1 v 4 h -1 v 5 h -1 v 5 h -1 v 6 h -1 v 6 h -1 v 5 h -1 v 6 h -1 v 6 h -1 v 5 h -1 v 6 h -1 v 6 h -1 v 5 h -1 v 6 h -1 v 7 h -1 v 6 h -1 v 7 h -1 v 6 h -1 v 7 h -1 v 7 h -1 v 6 h -1 v 7 h -1 v 7 h -1 v 8 h -1 v 8 h -1 v 8 h -1 v 8 h -1 v 8 h -1 v 8 h -1 v 9 h -1 v 10 h -1 v 10 h -1 v 10 h -1 v 11 h -1 v 10 h -1 v 11 h -1 v 14 h -1 v 14 h -1 v 15 h -1 v 15 h -1 v 22 h -1 v 23 h -1 v 38 h -1 v 96 h 1 v 28 h 1 v 29 h 1 v 16 h 1 v 16 h 1 v 17 h 1 v 14 h 1 v 11 h 1 v 12 h 1 v 11 h 1 v 12 h 1 v 10 h 1 v 9 h 1 v 9 h 1 v 9 h 1 v 8 h 1 v 9 h 1 v 9 h 1 v 8 h 1 v 7 h 1 v 7 h 1 v 7 h 1 v 7 h 1 v 7 h 1 v 7 h 1 v 7 h 1 v 7 h 1 v 6 h 1 v 6 h 1 v 6 h 1 v 6 h 1 v 6 h 1 v 6 h 1 v 6 h 1 v 6 h 1 v 6 h 1 v 5 h 1 v 5 h 1 v 6 h 1 v 5 h 1 v 5 h 1 v 5 h 1 v 5 h 1 v 5 h 1 v 5 h 1 v 5 h 1 v 5 h 1 v 5 h 1 v 5 h 1 v 5 h 1 v 4 h 1 v 5 h 1 v 4 h 1 v 4 h 1 v 5 h 1 v 4 h 1 v 5 h 1 v 4 h 1 v 5 h 1 v 4 h 1 v 5 h 1 v 4 h 1 v 4 h 1 v 4 h 1 v 4 h 1 v 4 h 1 v 4 h 1 v 4 h 1 v 4 h 1 v 4 h 1 v 4 h 1 v 4 h 1 v 3 h 1 v 4 h 1 v 4 h 1 v 4 h 1 v 4 h 1 v 4 h 1 v 3 h 1 v 4 h 1 v 4 h 1 v 3 h 1 v 4 h 1 v 3 h 1 v 4 h 1 v 4 h 1 v 3 h 1 v 4 h 1 v 3 h 1 v 4 h 1 v 3 h 1 v 3 h 1 v 4 h 1 v 3 h 1 v 4 h 1 v 3 h 1 v 3 h 1 v 4 h 1 v 3 h 1 v 4 h 1 v 3 h 1 v 3 h 1 v 4 h 1 v 3 h 1 v 3 h 1 v 4 h 1 v 3 h 1 v 4 h 1 v 3 h 1 v 3 h 1 v 4 h 1 v 3 h 1 v 4 h 1 v 3 h 1 v 3 h 1 v 4 h 1 v 3 h 1 v 3 h 1 v 4 h 1 v 3 h 1 v 4 h 1 v 3 h 1 v 3 h 1 v 4 h 1 v 3 h 1 v 4 h 1 v 3 h 1 v 3 h 1 v 4 h 1 v 3 h 1 v 3 h 1 v 4 h 1 v 3 h 1 v 4 h 1 v 3 h 1 v 3 h 1 v 4 h 1 v 3 h 1 v 4 h 1 v 3 h 1 v 3 h 1 v 4 h 1 v 3 h 1 v 3 h 1 v 4 h 1 v 3 h 1 v 4 h 1 v 3 h 1 v 3 h 1 v 4 h 1 v 3 h 1 v 4 h 1 v 3 h 1 v 3 h 1 v 4 h 1 v 3 h 1 v 3 h 1 v 4 h 1 v 3 h 1 v 4 h 1 v 3 h 1 v 3 h 1 v 4 h 1 v 3 h 1 v 4 h 1 v 3 h 1 v 3 h 1 v 4 h 1 v 3 h 1 v 3 h 1 v 4 h 1 v 3 h 1 v 4 h 1 v 3 h 1 v 3 h 1 v 4 h 1 v 3 h 1 v 4 h 1 v 3 h 1 v 3 h 1 v 4 h 1 v 3 h 1 v 4 h 1 v 3 h 1 v 3 h 1 v 4 h 1 v 3 h 1 v 3 h 1 v 4 h 1 v 3 h 1 v 4 h 1 v 3 h 1 v 3 h 1 v 4 h 1 v 3 h 1 v 4 h 1 v 3 h 1 v 3 h 1 v 4 h 1 v 3 h 1 v 3 h 1 v 4 h 1 v 3 h 1 v 4 h 1 v 3 h 1 v 3 h 1 v 4 h 1 v 3 h 1 v 4 h 1 v 3 h 1 v 3 h 1 v 4 h 1 v 3 h 1 v 3 h 1 v 4 h 1 v 3 h 1 v 4 h 1 v 3 h 1 v 3 h 1 v 4 h 1 v 3 h 1 v 4 h 1 v 3 h 1 v 3 h 1 v 4 h 1 v 3 h 1 v 3 h 1 v 4 h 1 v 3 h 1 v 4 h 1 v 3 h 1 v 3 h 1 v 4 h 1 v 3 h 1 v 4 h 1 v 3 h 1 v 3 h 1 v 4 h 1 v 3 h 1 v 3 h 1 v 4 h 1 v 3 h 1 v 4 h 1 v 3 h 1 v 3 h 1 v 4 h 1 v 3 h 1 v 4 h 1 v 3 h 1 v 3 h 1 v 4 h 1 v 3 h 1 v 3 h 1 v 4 h 1 v 3 h 1 v 4 h 1 v 3 h 1 v 3 h 1 v 4 h 1 v 3 h 1 v 4 h 1 v 3 h 1 v 3 h 1 v 4 h 1 v 3 h 1 v 3 h 1 v 4 h 1 v 3 h 1 v 4 h 1 v 3 h 1 v 3 h 1 v 4 h 1 v 3 h 1 v 4 h 1 v 3 h 1 v 3 h 1 v 4 h 1 v 3 h 1 v 3 h 1 v 4 h 1 v 3 h 1 v 4 h 1 v 3 h 1 v 3 h 1 v 4 h 1 v 3 h 1 v 4 h 1 v 3 h 1 v 3 h 1 v 4 h 1 v 3 h 1 v 3 h 1 v 4 h 1 v 3 h 1 v 4 h 1 v 3 h 1 v 3 h 1 v 4 h 1 v 3 h 1 v 4 h 1 v 3 h 1 v 3 h 1 v 4 h 1 v 3 h 1 v 3 h 1 v 4 h 1 v 3 h 1 v 4 h 1 v 3 h 1 v 3 h 1 v 4 h 1 v 3 h 1 v 4 h 1 v 3 h 1 v 3 h 1 v 4 h 1 v 3 h 1 v 3 h 1 v 4 h 1 v 3 h 1 v 4 h 1 v 3 h 1 v 3 h 1 v 4 h 1 v 3 h 1 v 4 h 1 v 3 h 1 v 3 h 1 v 4 h 1 v 3 h 1 v 3 h 1 v 4 h 1 v 3 h 1 v 4 h 1 v 3 h 1 v 3 h 1 v 4 h 1 v 3 h 1 v 4 h 1 v 3 h 1 v 3 h 1 v 4 h 1 v 3 h 1 v 4 h 1 v 3 h 1 v 3 h 1 v 4 h 1 v 3 h 1 v 3 h 1 v 4 h 1 v 3 h 1 v 4 h 1 v 3 h 1 v 3 h 1 v 4 h 1 v 3 h 1 v 4 h 1 v 3 h 1 v 3 h 1 v 4 h 1 v 3 h 1 v 3 h 1 v 4 h 1 v 3 h 1 v 4 h 1 v 3 h 1 v 3 h 1 v 4 h 1 v 3 h 1 v 4 h 1 v 3 h 1 v 3 h 1 v 4 h 1 v 3 h 1 v 3 h 1 v 4 h 1 v 3 h 1 v 4 h 1 v 3 h 1 v 3 h 1 v 4 h 1 v 3 h 1 v 4 h 1 v 3 h 1 v 3 h 1 v 4 h 1 v 3 h 1 v 3 h 1 v 4 h 1 v 3 h 1 v 4 h 1 v 3 h 1 v 3 h 1 v 4 h 1 v 3 h 1 v 4 h 1 v 3 h 1 v 3 h 1 v 4 h 1 v 3 h 1 v 3 h 1 v 4 h 1 v 3 h 1 v 4 h 1 v 3 h 1 v 3 h 1 v 4 h 1 v 3 h 1 v 4 h 1 v 3 h 1 v 3 h 1 v 4 h 1 v 3 h 1 v 3 h 1 v 4 h 1 v 3 h 1 v 4 h 1 v 3 h 1 v 3 h 1 v 4 h 1 v 3 h 1 v 4 h 1 v 3 h 1 v 3 h 1 v 4 h 1 v 3 h 1 v 3 h 1 v 4 h 1 v 3 h 1 v 4 h 1 v 3 h 1 v 3 h 1 v 4 h 1 v 3 h 1 v 4 h 1 v 3 h 1 v 3 h 1 v 4 h 1 v 3 h 1 v 3 h 1 v 4 h 1 v 3 h 1 v 4 h 1 v 3 h 1 v 3 h 1 v 4 h 1 v 3 h 1 v 4 h 1 v 3 h 1 v 3 h 1 v 4 h 1 v 3 h 1 v 3 h 1 v 4 h 1 v 3 h 1 v 4 h 1 v 3 h 1 v 3 h 1 v 4 h 1 v 3 h 1 v 4 h 1 v 3 h 1 v 3 h 1 v 4 h 1 v 3 h 1 v 3 h 1 v 4 h 1 v 3 h 1 v 4 h 1 v 3 h 1 v 3 h 1 v 4 h 1 v 3 h 1 v 4 h 1 v 3 h 1 v 3 h 1 v 4 h 1 v 3 h 1 v 3 h 1 v 4 h 1 v 3 h 1 v 4 h 1 v 3 h 1 v 3 h 1 v 4 h 1 v 3 h 1 v 4 h 1 v 3 h 1 v 3 h 1 v 4 h 1 v 3 h 1 v 3 h 1 v 4 h 1 v 3 h 1 v 4 h 1 v 3 h 1 v 3 h 1 v 4 h 1 v 3 h 1 v 4 h 1 v 3 h 1 v 3 h 1 v 4 h 1 v 3 h 1 v 4 h 1 v 3 h 1 v 3 h 1 v 4 h 1 v 3 h 1 v 3 h 1 v 4 h 1 v 3 h 1 v 4 h 1 v 3 h 1 v 3 h 1 v 4 h 1 v 3 h 1 v 4 h 1 v 3 h 1 v 3 h 1 v 4 h 1 v 3 h 1 v 3 h 1 v 4 h 1 v 3 h 1 v 4 h 1 v 3 h 1 v 3 h 1 v 4 h 1 v 3 h 1 v 4 h 1 v 3 h 1 v 3 h 1 v 4 h 1 v 3 h 1 v 3 h 1 v 4 h 1 v 3 h 1 v 4 h 1 v 3 h 1 v 3 h 1 v 4 h 1 v 3 h 1 v 4 h 1 v 3 h 1 v 3 h 1 v 4 h 1 v 3 h 1 v 3 h 1 v 4 h 1 v 3 h 1 v 4 h 1 v 3 h 1 v 3 h 1 v 4 h 1 v 3 h 1 v 4 h 1 v 3 h 1 v 3 h 1 v 4 h 1 v 3 h 1 v 3 h 1 v 4 h 1 v 3 h 1 v 4 h 1 v 3 h 1 v 3 h 1 v 4 h 1 v 3 h 1 v 4 h 1 v 3 h 1 v 3 h 1 v 4 h 1 v 3 h 1 v 3 h 1 v 4 h 1 v 3 h 1 v 4 h 1 v 3 h 1 v 3 h 1 v 4 h 1 v 3 h 1 v 4 h 1 v 3 h 1 v 3 h 1 v 4 h 1 v 3 h 1 v 3 h 1 v 4 h 1 v 3 h 1 v 4 h 1 v 3 h 1 v 3 h 1 v 4 h 1 v 3 h 1 v 4 h 1 v 3 h 1 v 3 h 1 v 4 h 1 v 3 h 1 v 3 h 1 v 4 h 1 v 3 h 1 v 4 h 1 v 3 h 1 v 3 h 1 v 4 h 1 v 3 h 1 v 4 h 1 v 3 h 1 v 3 h 1 v 4 h 1 v 3 h 1 v 3 h 1 v 4 h 1 v 3 h 1 v 4 h 1 v 3 h 1 v 3 h 1 v 4 h 1 v 3 h 1 v 4 h 1 v 3 h 1 v 3 h 1 v 4 h 1 v 3 h 1 v 3 h 1 v 4 h 1 v 3 h 1 v 4 h 1 v 3 h 1 v 3 h 1 v 4 h 1 v 3 h 1 v 4 h 1 v 3 h 1 v 3 h 1 v 4 h 1 v 3 h 1 v 3 h 1 v 4 h 1 v 3 h 1 v 4 h 1 v 3 h 1 v 3 h 1 v 4 h 1 v 3 h 1 v 4 h 1 v 3 h 1 v 3 h 1 v 4 h 1 v 3 h 1 v 3 h 1 v 4 h 1 v 3 h 1 v 4 h 1 v 3 h 1 v 3 h 1 v 4 h 1 v 3 h 1 v 4 h 1 v 3 h 1 v 3 h 1 v 4 h 1 v 3 h 1 v 3 h 1 v 4 h 1 v 3 h 1 v 4 h 1 v 3 h 1 v 3 h 1 v 4 h 1 v 3 h 1 v 4 h 1 v 3 h 1 v 3 h 1 v 4 h 1 v 3 h 1 v 4 h 1 v 3 h 1 v 3 h 1 v 4 h 1 v 3 h 1 v 3 h 1 v 4 h 1 v 3 h 1 v 4 h 1 v 3 h 1 v 3 h 1 v 4 h 1 v 3 h 1 v 4 h 1 v 3 h 1 v 3 h 1 v 4 h 1 v 3 h 1 v 3 h 1 v 4 h 1 v 3 h 1 v 4 h 1 v 3 h 1 v 3 h 1 v 4 h 1 v 3 h 1 v 4 h 1 v 3 h 1 v 3 h 1 v 4 h 1 v 3 h 1 v 3 h 1 v 4 h 1 v 3 h 1 v 4 h 1 v 3 h 1 v 3 h 1 v 4 h 1 v 3 h 1 v 4 h 1 v 3 h 1 v 3 h 1 v 4 h 1 v 3 h 1 v 3 h 1 v 4 h 1 v 3 h 1 v 4 h 1 v 3 h 1 v 3 h 1 v 4 h 1 v 3 h 1 v 4 h 1 v 3 h 1 v 3 h 1 v 4 h 1 v 3 h 1 v 3 h 1 v 4 h 1 v 3 h 1 v 4 h 1 v 3 h 1 v 3 h 1 v 4 h 1 v 3 h 1 v 4 h 1 v 3 h 1 v 3 h 1 v 4 h 1 v 3 h 1 v 3 h 1 v 4 h 1 v 3 h 1 v 4 h 1 v 3 h 1 v 3 h 1 v 4 h 1 v 3 h 1 v 4 h 1 v 3 h 1 v 3 h 1 v 4 h 1 v 3 h 1 v 3 h 1 v 4 h 1 v 3 h 1 v 4 h 1 v 3 h 1 v 3 h 1 v 4 h 1 v 3 h 1 v 4 h 1 v 3 h 1 v 3 h 1 v 4 h 1 v 3 h 1 v 3 h 1 v 4 h 1 v 3 h 1 v 4 h 1 v 3 h 1 v 3 h 1 v 4 h 1 v 3 h 1 v 4 h 1 v 3 h 1 v 3 h 1 v 4 h 1 v 3 h 1 v 3 h 1 v 4 h 1 v 3 h 1 v 4 h 1 v 3 h 1 v 3 h 1 v 4 h 1 v 3 h 1 v 4 h 1 v 3 h 1 v 3 h 1 v 4 h 1 v 3 h 1 v 3 h 1 v 4 h 1 v 3 h 1 v 4 h 1 v 3 h 1 v 3 h 1 v 4 h 1 v 3 h 1 v 4 h 1 v 3 h 1 v 3 h 1 v 4 h 1 v 3 h 1 v 3 h 1 v 4 h 1 v 3 h 1 v 4 h 1 v 3 h 1 v 3 h 1 v 4 h 1 v 3 h 1 v 4 h 1 v 3 h 1 v 3 h 1 v 4 h 1 v 3 h 1 v 3 h 1 v 4 h 1 v 3 h 1 v 4 h 1 v 3 h 1 v 3 h 1 v 4 h 1 v 3 h 1 v 4 h 1 v 3 h 1 v 3 h 1 v 4 h 1 v 3 h 1 v 4 h 1 v 3 h 1 v 3 h 1 v 4 h 1 v 3 h 1 v 3 h 1 v 4 h 1 v 3 h 1 v 4 h 1 v 3 h 1 v 3 h 1 v 4 h 1 v 3 h 1 v 4 h 1 v 3 h 1 v 3 h 1 v 4 h 1 v 3 h 1 v 3 h 1 v 4 h 1 v 3 h 1 v 4 h 1 v 3 h 1 v 3 h 1 v 4 h 1 v 3 h 1 v 4 h 1 v 3 h 1 v 3 h 1 v 4 h 1 v 3 h 1 v 3 h 1 v 4 h 1 v 3 h 1 v 4 h 1 v 3 h 1 v 3 h 1 v 4 h 1 v 3 h 1 v 4 h 1 v 3 h 1 v 3 h 1 v 4 h 1 v 3 h 1 v 3 h 1 v 4 h 1 v 3 h 1 v 4 h 1 v 3 h 1 v 3 h 1 v 4 h 1 v 3 h 1 v 4 h 1 v 3 h 1 v 3 h 1 v 4 h 1 v 3 h 1 v 3 h 1 v 4 h 1 v 3 h 1 v 4 h 1 v 3 h 1 v 3 h 1 v 4 h 1 v 3 h 1 v 4 h 1 v 3 h 1 v 3 h 1 v 4 h 1 v 3 h 1 v 3 h 1 v 4 h 1 v 3 h 1 v 4 h 1 v 3 h 1 v 3 h 1 v 4 h 1 v 3 h 1 v 4 h 1 v 3 h 1 v 3 h 1 v 4 h 1 v 3 h 1 v 3 h 1 v 4 h 1 v 3 h 1 v 4 h 1 v 3 h 1 v 3 h 1 v 4 h 1 v 3 h 1 v 4 h 1 v 3 h 1 v 3 h 1 v 4 h 1 v 3 h 1 v 3 h 1 v 4 h 1 v 3 h 1 v 4 h 1 v 3 h 1 v 3 h 1 v 4 h 1 v 3 h 1 v 4 h 1 v 3 h 1 v 3 h 1 v 4 h 1 v 3 h 1 v 3 h 1 v 4 h 1 v 3 h 1 v 4 h 1 v 3 h 1 v 3 h 1 v 4 h 1 v 3 h 1 v 4 h 1 v 3 h 1 v 3 h 1 v 4 h 1 v 3 h 1 v 3 h 1 v 4 h 1 v 3 h 1 v 4 h 1 v 3 h 1 v 3 h 1 v 4 h 1 v 3 h 1 v 4 h 1 v 3 h 1 v 3 h 1 v 4 h 1 v 3 h 1 v 3 h 1 v 4 h 1 v 3 h 1 v 4 h 1 v 3 h 1 v 3 h 1 v 4 h 1 v 3 h 1 v 4 h 1 v 3 h 1 v 3 h 1 v 4 h 1 v 3 h 1 v 3 h 1 v 4 h 1 v 3 h 1 v 4 h 1 v 3 h 1 v 3 h 1 v 4 h 1 v 3 h 1 v 4 h 1 v 3 h 1 v 3 h 1 v 4 h 1 v 3 h 1 v 4 h 1 v 3 h 1 v 3 h 1 v 4 h 1 v 3 h 1 v 3 h 1 v 4 h 1 v 3 h 1 v 4 h 1 v 3 h 1 v 3 h 1 v 4 h 1 v 3 h 1 v 4 h 1 v 3 h 1 v 3 h 1 v 4 h 1 v 3 h 1 v 3 h 1 v 4 h 1 v 3 h 1 v 4 h 1 v 3 h 1 v 3 h 1 v 4 h 1 v 3 h 1 v 4 h 1 v 3 h 1 v 3 h 1 v 4 h 1 v 3 h 1 v 3 h 1 v 4 h 1 v 3 h 1 v 4 h 1 v 3 h 1 v 3 h 1 v 4 h 1 v 3 h 1 v 4 h 1 v 3 h 1 v 3 h 1 v 4 h 1 v 3 h 1 v 3 h 1 v 4 h 1 v 3 h 1 v 4 h 1 v 3 h 1 v 3 h 1 v 4 h 1 v 3 h 1 v 4 h 1 v 3 h 1 v 3 h 1 v 4 h 1 v 3 h 1 v 3 h 1 v 4 h 1 v 3 h 1 v 4 h 1 v 3 h 1 v 3 h 1 v 4 h 1 v 3 h 1 v 4 h 1 v 3 h 1 v 3 h 1 v 4 h 1 v 3 h 1 v 3 h 1 v 4 h 1 v 3 h 1 v 4 h 1 v 3 h 1 v 3 h 1 v 4 h 1 v 3 h 1 v 4 h 1 v 3 h 1 v 3 h 1 v 4 h 1 v 3 h 1 v 3 h 1 v 4 h 1 v 3 h 1 v 4 h 1 v 3 h 1 v 3 h 1 v 4 h 1 v 3 h 1 v 4 h 1 v 3 h 1 v 3 h 1 v 4 h 1 v 3 h 1 v 3 h 1 v 4 h 1 v 3 h 1 v 4 h 1 v 3 h 1 v 3 h 1 v 4 h 1 v 3 h 1 v 4 h 1 v 3 h 1 v 3 h 1 v 4 h 1 v 3 h 1 v 3 h 1 v 4 h 1 v 3 h 1 v 4 h 1 v 3 h 1 v 3 h 1 v 4 h 1 v 3 h 1 v 4 h 1 v 3 h 1 v 3 h 1 v 4 h 1 v 3 h 1 v 3 h 1 v 4 h 1 v 3 h 1 v 4 h 1 v 3 h 1 v 3 h 1 v 4 h 1 v 3 h 1 v 4 h 1 v 3 h 1 v 3 h 1 v 4 h 1 v 3 h 1 v 3 h 1 v 4 h 1 v 3 h 1 v 4 h 1 v 3 h 1 v 3 h 1 v 4 h 1 v 3 h 1 v 4 h 1 v 3 h 1 v 3 h 1 v 4 h 1 v 3 h 1 v 3 h 1 v 4 h 1 v 3 h 1 v 4 h 1 v 3 h 1 v 3 h 1 v 4 h 1 v 3 h 1 v 4 h 1 v 3 h 1 v 3 h 1 v 4 h 1 v 3 h 1 v 4 h 1 v 3 h 1 v 3 h 1 v 4 h 1 v 3 h 1 v 3 h 1 v 4 h 1 v 3 h 1 v 4 h 1 v 3 h 1 v 3 h 1 v 4 h 1 v 3 h 1 v 4 h 1 v 3 h 1 v 3 h 1 v 4 h 1 v 3 h 1 v 3 h 1 v 4 h 1 v 3 h 1 v 4 h 1 v 3 h 1 v 3 h 1 v 4 h 1 v 3 h 1 v 4 h 1 v 3 h 1 v 3 h 1 v 4 h 1 v 3 h 1 v 3 h 1 v 4 h 1 v 3 h 1 v 4 h 1 v 3 h 1 v 3 h 1 v 4 h 1 v 3 h 1 v 4 h 1 v 3 h 1 v 3 h 1 v 4 h 1 v 3 h 1 v 3 h 1 v 4 h 1 v 3 h 1 v 4 h 1 v 3 h 1 v 3 h 1 v 4 h 1 v 3 h 1 v 4 h 1 v 3 h 1 v 3 h 1 v 4 h 1 v 3 h 1 v 3 h 1 v 4 h 1 v 3 h 1 v 4 h 1 v 3 h 1 v 3 h 1 v 4 h 1 v 3 h 1 v 4 h 1 v 3 h 1 v 3 h 1 v 4 h 1 v 3 h 1 v 3 h 1 v 4 h 1 v 3 h 1 v 4 h 1 v 3 h 1 v 3 h 1 v 4 h 1 v 3 h 1 v 4 h 1 v 3 h 1 v 3 h 1 v 4 h 1 v 3 h 1 v 3 h 1 v 4 h 1 v 3 h 1 v 4 h 1 v 3 h 1 v 3 h 1 v 4 h 1 v 3 h 1 v 4 h 1 v 3 h 1 v 3 h 1 v 4 h 1 v 3 h 1 v 3 h 1 v 4 h 1 v 3 h 1 v 4 h 1 v 3 h 1 v 3 h 1 v 4 h 1 v 3 h 1 v 4 h 1 v 3 h 1 v 3 h 1 v 4 h 1 v 3 h 1 v 3 h 1 v 4 h 1 v 3 h 1 v 4 h 1 v 3 h 1 v 3 h 1 v 4 h 1 v 3 h 1 v 4 h 1 v 3 h 1 v 3 h 1 v 4 h 1 v 3 h 1 v 3 h 1 v 4 h 1 v 3 h 1 v 4 h 1 v 3 h 1 v 3 h 1 v 4 h 1 v 3 h 1 v 4 h 1 v 3 h 1 v 3 h 1 v 4 h 1 v 3 h 1 v 3 h 1 v 4 h 1 v 3 h 1 v 4 h 1 v 3 h 1 v 3 h 1 v 4 h 1 v 3 h 1 v 4 h 1 v 3 h 1 v 3 h 1 v 4 h 1 v 3 h 1 v 3 h 1 v 4 h 1 v 3 h 1 v 4 h 1 v 3 h 1 v 3 h 1 v 4 h 1 v 3 h 1 v 4 h 1 v 3 h 1 v 3 h 1 v 4 h 1 v 3 h 1 v 4 h 1 v 3 h 1 v 3 h 1 v 4 h 1 v 3 h 1 v 3 h 1 v 4 h 1 v 3 h 1 v 4 h 1 v 3 h 1 v 3 h 1 v 4 h 1 v 3 h 1 v 4 h 1 v 3 h 1 v 3 h 1 v 4 h 1 v 3 h 1 v 3 h 1 v 4 h 1 v 3 h 1 v 4 h 1 v 3 h 1 v 3 h 1 v 4 h 1 v 3 h 1 v 4 h 1 v 3 h 1 v 3 h 1 v 4 h 1 v 3 h 1 v 3 h 1 v 4 h 1 v 3 h 1 v 4 h 1 v 3 h 1 v 3 h 1 v 4 h 1 v 3 h 1 v 4 h 1 v 3 h 1 v 3 h 1 v 4 h 1 v 3 h 1 v 3 h 1 v 4 h 1 v 3 h 1 v 4 h 1 v 3 h 1 v 3 h 1 v 4 h 1 v 3 h 1 v 4 h 1 v 3 h 1 v 3 h 1 v 4 h 1 v 3 h 1 v 3 h 1 v 4 h 1 v 3 h 1 v 4 h 1 v 3 h 1 v 3 h 1 v 4 h 1 v 3 h 1 v 4 h 1 v 3 h 1 v 3 h 1 v 4 h 1 v 3 h 1 v 3 h 1 v 4 h 1 v 3 h 1 v 4 h 1 v 3 h 1 v 3 h 1 v 4 h 1 v 3 h 1 v 4 h 1 v 3 h 1 v 3 h 1 v 4 h 1 v 3 h 1 v 3 h 1 v 4 h 1 v 3 h 1 v 4 h 1 v 3 h 1 v 3 h 1 v 4 h 1 v 3 h 1 v 4 h 1 v 3 h 1 v 3 h 1 v 4 h 1 v 3 h 1 v 3 h 1 v 4 h 1 v 3 h 1 v 4 h 1 v 3 h 1 v 3 h 1 v 4 h 1 v 3 h 1 v 4 h 1 v 3 h 1 v 3 h 1 v 4 h 1 v 3 h 1 v 3 h 1 v 4 h 1 v 3 h 1 v 4 h 1 v 3 h 1 v 3 h 1 v 4 h 1 v 3 h 1 v 4 h 1 v 3 h 1 v 3 h 1 v 4 h 1 v 3 h 1 v 3 h 1 v 4 h 1 v 3 h 1 v 4 h 1 v 3 h 1 v 3 h 1 v 4 h 1 v 3 h 1 v 4 h 1 v 3 h 1 v 3 h 1 v 4 h 1 v 3 h 1 v 3 h 1 v 4 h 1 v 3 h 1 v 4 h 1 v 3 h 1 v 3 h 1 v 4 h 1 v 3 h 1 v 4 h 1 v 3 h 1 v 3 h 1 v 4 h 1 v 3 h 1 v 3 h 1 v 4 h 1 v 3 h 1 v 4 h 1 v 3 h 1 v 3 h 1 v 4 h 1 v 3 h 1 v 4 h 1 v 3 h 1 v 3 h 1 v 4 h 1 v 3 h 1 v 4 h 1 v 3 h 1 v 3 h 1 v 4 h 1 v 3 h 1 v 3 h 1 v 4 h 1 v 3 h 1 v 4 h 1 v 3 h 1 v 3 h 1 v 4 h 1 v 3 h 1 v 4 h 1 v 3 h 1 v 3 h 1 v 4 h 1 v 3 h 1 v 3 h 1 v 4 h 1 v 3 h 1 v 4 h 1 v 3 h 1 v 3 h 1 v 4 h 1 v 3 h 1 v 4 h 1 v 3 h 1 v 3 h 1 v 4 h 1 v 3 h 1 v 3 h 1 v 4 h 1 v 3 h 1 v 4 h 1 v 3 h 1 v 3 h 1 v 4 h 1 v 3 h 1 v 4 h 1 v 3 h 1 v 3 h 1 v 4 h 1 v 3 h 1 v 3 h 1 v 4 h 1 v 3 h 1 v 4 h 1 v 3 h 1 v 3 h 1 v 4 h 1 v 3 h 1 v 4 h 1 v 3 h 1 v 3 h 1 v 4 h 1 v 3 h 1 v 3 h 1 v 4 h 1 v 3 h 1 v 4 h 1 v 3 h 1 v 3 h 1 v 4 h 1 v 3 h 1 v 4 h 1 v 3 h 1 v 3 h 1 v 4 h 1 v 3 h 1 v 3 h 1 v 4 h 1 v 3 h 1 v 4 h 1 v 3 h 1 v 3 h 1 v 4 h 1 v 3 h 1 v 4 h 1 v 3 h 1 v 3 h 1 v 4 h 1 v 3 h 1 v 3 h 1 v 4 h 1 v 3 h 1 v 4 h 1 v 3 h 1 v 3 h 1 v 4 h 1 v 3 h 1 v 4 h 1 v 3 h 1 v 3 h 1 v 4 h 1 v 3 h 1 v 3 h 1 v 4 h 1 v 3 h 1 v 4 h 1 v 3 h 1 v 3 h 1 v 4 h 1 v 3 h 1 v 4 h 1 v 3 h 1 v 3 h 1 v 4 h 1 v 3 h 1 v 3 h 1 v 4 h 1 v 3 h 1 v 4 h 1 v 3 h 1 v 3 h 1 v 4 h 1 v 3 h 1 v 4 h 1 v 3 h 1 v 3 h 1 v 4 h 1 v 3 h 1 v 3 h 1 v 4 h 1 v 3 h 1 v 4 h 1 v 3 h 1 v 3 h 1 v 4 h 1 v 3 h 1 v 4 h 1 v 3 h 1 v 3 h 1 v 4 h 1 v 3 h 1 v 3 h 1 v 4 h 1 v 3 h 1 v 4 h 1 v 3 h 1 v 3 h 1 v 4 h 1 v 3 h 1 v 4 h 1 v 3 h 1 v 3 h 1 v 4 h 1 v 3 h 1 v 3 h 1 v 4 h 1 v 3 h 1 v 4 h 1 v 3 h 1 v 3 h 1 v 4 h 1 v 3 h 1 v 4 h 1 v 3 h 1 v 3 h 1 v 4 h 1 v 3 h 1 v 4 h 1 v 3 h 1 v 3 h 1 v 4 h 1 v 3 h 1 v 3 h 1 v 4 h 1 v 3 h 1 v 4 h 1 v 3 h 1 v 3 h 1 v 4 h 1 v 3 h 1 v 4 h 1 v 3 h 1 v 3 h 1 v 4 h 1 v 3 h 1 v 3 h 1 v 4 h 1 v 3 h 1 v 4 h 1 v 3 h 1 v 3 h 1 v 4 h 1 v 3 h 1 v 4 h 1 v 3 h 1 v 3 h 1 v 4 h 1 v 3 h 1 v 3 h 1 v 4 h 1 v 3 h 1 v 4 h 1 v 3 h 1 v 3 h 1 v 4 h 1 v 3 h 1 v 4 h 1 v 3 h 1 v 3 h 1 v 4 h 1 v 3 h 1 v 3 h 1 v 4 h 1 v 3 h 1 v 4 h 1 v 3 h 1 v 3 h 1 v 4 h 1 v 3 h 1 v 4 h 1 v 3 h 1 v 3 h 1 v 4 h 1 v 3 h 1 v 3 h 1 v 4 h 1 v 3 h 1 v 4 h 1 v 3 h 1 v 3 h 1 v 4 h 1 v 3 h 1 v 4 h 1 v 3 h 1 v 3 h 1 v 4 h 1 v 3 h 1 v 3 h 1 v 4 h 1 v 3 h 1 v 4 h 1 v 3 h 1 v 3 h 1 v 4 h 1 v 3 h 1 v 4 h 1 v 3 h 1 v 3 h 1 v 4 h 1 v 3 h 1 v 3 h 1 v 4 h 1 v 3 h 1 v 4 h 1 v 3 h 1 v 3 h 1 v 4 h 1 v 3 h 1 v 4 h 1 v 3 h 1 v 3 h 1 v 4 h 1 v 3 h 1 v 3 h 1 v 4 h 1 v 3 h 1 v 4 h 1 v 3 h 1 v 3 h 1 v 4 h 1 v 3 h 1 v 4 h 1 v 3 h 1 v 3 h 1 v 4 h 1 v 3 h 1 v 3 h 1 v 4 h 1 v 3 h 1 v 4 h 1 v 3 h 1 v 3 h 1 v 4 h 1 v 3 h 1 v 4 h 1 v 3 h 1 v 3 h 1 v 4 h 1 v 3 h 1 v 3 h 1 v 4 h 1 v 3 h 1 v 4 h 1 v 3 h 1 v 3 h 1 v 4 h 1 v 3 h 1 v 4 h 1 v 3 h 1 v 3 h 1 v 4 h 1 v 3 h 1 v 3 h 1 v 4 h 1 v 3 h 1 v 4 h 1 v 3 h 1 v 3 h 1 v 4 h 1 v 3 h 1 v 4 h 1 v 3 h 1 v 3 h 1 v 4 h 1 v 3 h 1 v 3 h 1 v 4 h 1 v 3 h 1 v 4 h 1 v 3 h 1 v 3 h 1 v 4 h 1 v 3 h 1 v 4 h 1 v 3 h 1 v 3 h 1 v 4 h 1 v 3 h 1 v 3 h 1 v 4 h 1 v 3 h 1 v 4 h 1 v 3 h 1 v 3 h 1 v 4 h 1 v 3 h 1 v 4 h 1 v 3 h 1 v 3 h 1 v 4 h 1 v 3 h 1 v 4 h 1 v 3 h 1 v 3 h 1 v 4 h 1 v 3 h 1 v 3 h 1 v 4 h 1 v 3 h 1 v 4 h 1 v 3 h 1 v 3 h 1 v 4 h 1 v 3 h 1 v 4 h 1 v 3 h 1 v 3 h 1 v 4 h 1 v 3 h 1 v 3 h 1 v 4 h 1 v 3 h 1 v 4 h 1 v 3 h 1 v 3 h 1 v 4 h 1 v 3 h 1 v 4 h 1 v 3 h 1 v 3 h 1 v 4 h 1 v 3 h 1 v 3 h 1 v 4 h 1 v 3 h 1 v 4 h 1 v 3 h 1 v 3 h 1 v 4 h 1 v 3 h 1 v 4 h 1 v 3 h 1 v 3 h 1 v 4 h 1 v 3 h 1 v 3 h 1 v 4 h 1 v 3 h 1 v 4 h 1 v 3 h 1 v 3 h 1 v 4 h 1 v 3 h 1 v 4 h 1 v 3 h 1 v 3 h 1 v 4 h 1 v 3 h 1 v 3 h 1 v 4 h 1 v 3 h 1 v 4 h 1 v 3 h 1 v 3 h 1 v 4 h 1 v 3 h 1 v 4 h 1 v 3 h 1 v 3 h 1 v 4 h 1 v 3 h 1 v 3 h 1 v 4 h 1 v 3 h 1 v 4 h 1 v 3 h 1 v 3 h 1 v 4 h 1 v 3 h 1 v 4 h 1 v 3 h 1 v 3 h 1 v 4 h 1 v 3 h 1 v 3 h 1 v 4 h 1 v 3 h 1 v 4 h 1 v 3 h 1 v 3 h 1 v 4 h 1 v 3 h 1 v 4 h 1 v 3 h 1 v 3 h 1 v 4 h 1 v 3 h 1 v 3 h 1 v 4 h 1 v 3 h 1 v 4 h 1 v 3 h 1 v 3 h 1 v 4 h 1 v 3 h 1 v 4 h 1 v 3 h 1 v 3 h 1 v 4 h 1 v 3 h 1 v 3 h 1 v 4 h 1 v 3 h 1 v 4 h 1 v 3 h 1 v 3 h 1 v 4 h 1 v 3 h 1 v 4 h 1 v 3 h 1 v 3 h 1 v 4 h 1 v 3 h 1 v 3 h 1 v 4 h 1 v 3 h 1 v 4 h 1 v 3 h 1 v 3 h 1 v 4 h 1 v 3 h 1 v 4 h 1 v 3 h 1 v 3 h 1 v 4 h 1 v 3 h 1 v 3 h 1 v 4 h 1 v 3 h 1 v 4 h 1 v 3 h 1 v 3 h 1 v 4 h 1 v 3 h 1 v 4 h 1 v 3 h 1 v 3 h 1 v 4 h 1 v 3 h 1 v 3 h 1 v 4 h 1 v 3 h 1 v 4 h 1 v 3 h 1 v 3 h 1 v 4 h 1 v 3 h 1 v 4 h 1 v 3 h 1 v 3 h 1 v 4 h 1 v 3 h 1 v 4 h 1 v 3 h 1 v 3 h 1 v 4 h 1 v 3 h 1 v 3 h 1 v 4 h 1 v 3 h 1 v 4 h 1 v 3 h 1 v 3 h 1 v 4 h 1 v 3 h 1 v 4 h 1 v 3 h 1 v 3 h 1 v 4 h 1 v 3 h 1 v 3 h 1 v 4 h 1 v 3 h 1 v 4 h 1 v 3 h 1 v 3 h 1 v 4 h 1 v 3 h 1 v 4 h 1 v 3 h 1 v 3 h 1 v 4 h 1 v 3 h 1 v 3 h 1 v 4 h 1 v 3 h 1 v 4 h 1 v 3 h 1 v 3 h 1 v 4 h 1 v 3 h 1 v 4 h 1 v 3 h 1 v 3 h 1 v 4 h 1 v 3 h 1 v 3 h 1 v 4 h 1 v 3 h 1 v 4 h 1 v 3 h 1 v 3 h 1 v 4 h 1 v 3 h 1 v 4 h 1 v 3 h 1 v 3 h 1 v 4 h 1 v 3 h 1 v 3 h 1 v 4 h 1 v 3 h 1 v 4 h 1 v 3 h 1 v 3 h 1 v 4 h 1 v 3 h 1 v 4 h 1 v 3 h 1 v 3 h 1 v 4 h 1 v 3 h 1 v 3 h 1 v 4 h 1 v 3 h 1 v 4 h 1 v 3 h 1 v 3 h 1 v 4 h 1 v 3 h 1 v 4 h 1 v 3 h 1 v 3 h 1 v 4 h 1 v 3 h 1 v 3 h 1 v 4 h 1 v 3 h 1 v 4 h 1 v 3 h 1 v 3 h 1 v 4 h 1 v 3 h 1 v 4 h 1 v 3 h 1 v 3 h 1 v 4 h 1 v 3 h 1 v 3 h 1 v 4 h 1 v 3 h 1 v 4 h 1 v 3 h 1 v 3 h 1 v 4 h 1 v 3 h 1 v 4 h 1 v 3 h 1 v 3 h 1 v 4 h 1 v 3 h 1 v 3 h 1 v 4 h 1 v 3 h 1 v 4 h 1 v 3 h 1 v 3 h 1 v 4 h 1 v 3 h 1 v 4 h 1 v 3 h 1 v 3 h 1 v 4 h 1 v 3 h 1 v 3 h 1 v 4 h 1 v 3 h 1 v 4 h 1 v 3 h 1 v 3 h 1 v 4 h 1 v 3 h 1 v 4 h 1 v 3 h 1 v 3 h 1 v 4 h 1 v 3 h 1 v 3 h 1 v 4 h 1 v 3 h 1 v 4 h 1 v 3 h 1 v 3 h 1 v 4 h 1 v 3 h 1 v 4 h 1 v 3 h 1 v 3 h 1 v 4 h 1 v 3 h 1 v 3 h 1 v 4 h 1 v 3 h 1 v 4 h 1 v 3 h 1 v 3 h 1 v 4 h 1 v 3 h 1 v 4 h 1 v 3 h 1 v 3 h 1 v 4 h 1 v 3 h 1 v 4 h 1 v 3 h 1 v 3 h 1 v 4 h 1 v 3 h 1 v 3 h 1 v 4 h 1 v 3 h 1 v 4 h 1 v 3 h 1 v 3 h 1 v 4 h 1 v 3 h 1 v 4 h 1 v 3 h 1 v 3 h 1 v 4 h 1 v 3 h 1 v 3 h 1 v 4 h 1 v 3 h 1 v 4 h 1 v 3 h 1 v 3 h 1 v 4 h 1 v 3 h 1 v 4 h 1 v 3 h 1 v 3 h 1 v 4 h 1 v 3 h 1 v 3 h 1 v 4 h 1 v 3 h 1 v 4 h 1 v 3 h 1 v 3 h 1 v 4 h 1 v 3 h 1 v 4 h 1 v 3 h 1 v 3 h 1 v 4 h 1 v 3 h 1 v 3 h 1 v 4 h 1 v 3 h 1 v 4 h 1 v 3 h 1 v 3 h 1 v 4 h 1 v 3 h 1 v 4 h 1 v 3 h 1 v 3 h 1 v 4 h 1 v 3 h 1 v 3 h 1 v 4 h 1 v 3 h 1 v 4 h 1 v 3 h 1 v 3 h 1 v 4 h 1 v 3 h 1 v 4 h 1 v 3 h 1 v 3 h 1 v 4 h 1 v 3 h 1 v 3 h 1 v 4 h 1 v 3 h 1 v 4 h 1 v 3 h 1 v 3 h 1 v 4 h 1 v 3 h 1 v 4 h 1 v 3 h 1 v 3 h 1 v 4 h 1 v 3 h 1 v 3 h 1 v 4 h 1 v 3 h 1 v 4 h 1 v 3 h 1 v 3 h 1 v 4 h 1 v 3 h 1 v 4 h 1 v 3 h 1 v 3 h 1 v 4 h 1 v 3 h 1 v 3 h 1 v 4 h 1 v 3 h 1 v 4 h 1 v 3 h 1 v 3 h 1 v 4 h 1 v 3 h 1 v 4 h 1 v 3 h 1 v 3 h 1 v 1 h 1 v -1 h 1 v -3 h 1 v -4 h 1 v -3 h 1 v -3 h 1 v -4 h 1 v -3 h 1 v -4 h 1 v -3 h 1 v -3 h 1 v -4 h 1 v -3 h 1 v -4 h 1 v -3 h 1 v -3 h 1 v -4 h 1 v -3 h 1 v -3 h 1 v -4 h 1 v -3 h 1 v -4 h 1 v -3 h 1 v -3 h 1 v -4 h 1 v -3 h 1 v -4 h 1 v -3 h 1 v -3 h 1 v -4 h 1 v -3 h 1 v -3 h 1 v -4 h 1 v -3 h 1 v -4 h 1 v -3 h 1 v -3 h 1 v -4 h 1 v -3 h 1 v -4 h 1 v -3 h 1 v -3 h 1 v -4 h 1 v -3 h 1 v -3 h 1 v -4 h 1 v -3 h 1 v -4 h 1 v -3 h 1 v -3 h 1 v -4 h 1 v -3 h 1 v -4 h 1 v -3 h 1 v -3 h 1 v -4 h 1 v -3 h 1 v -3 h 1 v -4 h 1 v -3 h 1 v -4 h 1 v -3 h 1 v -3 h 1 v -4 h 1 v -3 h 1 v -4 h 1 v -3 h 1 v -3 h 1 v -4 h 1 v -3 h 1 v -3 h 1 v -4 h 1 v -3 h 1 v -4 h 1 v -3 h 1 v -3 h 1 v -4 h 1 v -3 h 1 v -4 h 1 v -3 h 1 v -3 h 1 v -4 h 1 v -3 h 1 v -4 h 1 v -3 h 1 v -3 h 1 v -4 h 1 v -3 h 1 v -3 h 1 v -4 h 1 v -3 h 1 v -4 h 1 v -3 h 1 v -3 h 1 v -4 h 1 v -3 h 1 v -4 h 1 v -3 h 1 v -3 h 1 v -4 h 1 v -3 h 1 v -3 h 1 v -4 h 1 v -3 h 1 v -4 h 1 v -3 h 1 v -3 h 1 v -4 h 1 v -3 h 1 v -4 h 1 v -3 h 1 v -3 h 1 v -4 h 1 v -3 h 1 v -3 h 1 v -4 h 1 v -3 h 1 v -4 h 1 v -3 h 1 v -3 h 1 v -4 h 1 v -3 h 1 v -4 h 1 v -3 h 1 v -3 h 1 v -4 h 1 v -3 h 1 v -3 h 1 v -4 h 1 v -3 h 1 v -4 h 1 v -3 h 1 v -3 h 1 v -4 h 1 v -3 h 1 v -4 h 1 v -3 h 1 v -3 h 1 v -4 h 1 v -3 h 1 v -3 h 1 v -4 h 1 v -3 h 1 v -4 h 1 v -3 h 1 v -3 h 1 v -4 h 1 v -3 h 1 v -4 h 1 v -3 h 1 v -3 h 1 v -4 h 1 v -3 h 1 v -3 h 1 v -4 h 1 v -3 h 1 v -4 h 1 v -3 h 1 v -3 h 1 v -4 h 1 v -3 h 1 v -4 h 1 v -3 h 1 v -3 h 1 v -4 h 1 v -3 h 1 v -3 h 1 v -4 h 1 v -3 h 1 v -4 h 1 v -3 h 1 v -3 h 1 v -4 h 1 v -3 h 1 v -4 h 1 v -3 h 1 v -3 h 1 v -4 h 1 v -3 h 1 v -3 h 1 v -4 h 1 v -3 h 1 v -4 h 1 v -3 h 1 v -3 h 1 v -4 h 1 v -3 h 1 v -4 h 1 v -3 h 1 v -3 h 1 v -4 h 1 v -3 h 1 v -3 h 1 v -4 h 1 v -3 h 1 v -4 h 1 v -3 h 1 v -3 h 1 v -4 h 1 v -3 h 1 v -4 h 1 v -3 h 1 v -3 h 1 v -4 h 1 v -3 h 1 v -3 h 1 v -4 h 1 v -3 h 1 v -4 h 1 v -3 h 1 v -3 h 1 v -4 h 1 v -3 h 1 v -4 h 1 v -3 h 1 v -3 h 1 v -4 h 1 v -3 h 1 v -3 h 1 v -4 h 1 v -3 h 1 v -4 h 1 v -3 h 1 v -3 h 1 v -4 h 1 v -3 h 1 v -4 h 1 v -3 h 1 v -3 h 1 v -4 h 1 v -3 h 1 v -3 h 1 v -4 h 1 v -3 h 1 v -4 h 1 v -3 h 1 v -3 h 1 v -4 h 1 v -3 h 1 v -4 h 1 v -3 h 1 v -3 h 1 v -4 h 1 v -3 h 1 v -3 h 1 v -4 h 1 v -3 h 1 v -4 h 1 v -3 h 1 v -3 h 1 v -4 h 1 v -3 h 1 v -4 h 1 v -3 h 1 v -3 h 1 v -4 h 1 v -3 h 1 v -3 h 1 v -4 h 1 v -3 h 1 v -4 h 1 v -3 h 1 v -3 h 1 v -4 h 1 v -3 h 1 v -4 h 1 v -3 h 1 v -3 h 1 v -4 h 1 v -3 h 1 v -4 h 1 v -3 h 1 v -3 h 1 v -4 h 1 v -3 h 1 v -3 h 1 v -4 h 1 v -3 h 1 v -4 h 1 v -3 h 1 v -3 h 1 v -4 h 1 v -3 h 1 v -4 h 1 v -3 h 1 v -3 h 1 v -4 h 1 v -3 h 1 v -3 h 1 v -4 h 1 v -3 h 1 v -4 h 1 v -3 h 1 v -3 h 1 v -4 h 1 v -3 h 1 v -4 h 1 v -3 h 1 v -3 h 1 v -4 h 1 v -3 h 1 v -3 h 1 v -4 h 1 v -3 h 1 v -4 h 1 v -3 h 1 v -3 h 1 v -4 h 1 v -3 h 1 v -4 h 1 v -3 h 1 v -3 h 1 v -4 h 1 v -3 h 1 v -3 h 1 v -4 h 1 v -3 h 1 v -4 h 1 v -3 h 1 v -3 h 1 v -4 h 1 v -3 h 1 v -4 h 1 v -3 h 1 v -3 h 1 v -4 h 1 v -3 h 1 v -3 h 1 v -4 h 1 v -3 h 1 v -4 h 1 v -3 h 1 v -3 h 1 v -4 h 1 v -3 h 1 v -4 h 1 v -3 h 1 v -3 h 1 v -4 h 1 v -3 h 1 v -3 h 1 v -4 h 1 v -3 h 1 v -4 h 1 v -3 h 1 v -3 h 1 v -4 h 1 v -3 h 1 v -4 h 1 v -3 h 1 v -3 h 1 v -4 h 1 v -3 h 1 v -3 h 1 v -4 h 1 v -3 h 1 v -4 h 1 v -3 h 1 v -3 h 1 v -4 h 1 v -3 h 1 v -4 h 1 v -3 h 1 v -3 h 1 v -4 h 1 v -3 h 1 v -3 h 1 v -4 h 1 v -3 h 1 v -4 h 1 v -3 h 1 v -3 h 1 v -4 h 1 v -3 h 1 v -4 h 1 v -3 h 1 v -3 h 1 v -4 h 1 v -3 h 1 v -3 h 1 v -4 h 1 v -3 h 1 v -4 h 1 v -3 h 1 v -3 h 1 v -4 h 1 v -3 h 1 v -4 h 1 v -3 h 1 v -3 h 1 v -4 h 1 v -3 h 1 v -3 h 1 v -4 h 1 v -3 h 1 v -4 h 1 v -3 h 1 v -3 h 1 v -4 h 1 v -3 h 1 v -4 h 1 v -3 h 1 v -3 h 1 v -4 h 1 v -3 h 1 v -3 h 1 v -4 h 1 v -3 h 1 v -4 h 1 v -3 h 1 v -3 h 1 v -4 h 1 v -3 h 1 v -4 h 1 v -3 h 1 v -3 h 1 v -4 h 1 v -3 h 1 v -3 h 1 v -4 h 1 v -3 h 1 v -4 h 1 v -3 h 1 v -3 h 1 v -4 h 1 v -3 h 1 v -4 h 1 v -3 h 1 v -3 h 1 v -4 h 1 v -3 h 1 v -3 h 1 v -4 h 1 v -3 h 1 v -4 h 1 v -3 h 1 v -3 h 1 v -4 h 1 v -3 h 1 v -4 h 1 v -3 h 1 v -3 h 1 v -4 h 1 v -3 h 1 v -3 h 1 v -4 h 1 v -3 h 1 v -4 h 1 v -3 h 1 v -3 h 1 v -4 h 1 v -3 h 1 v -4 h 1 v -3 h 1 v -3 h 1 v -4 h 1 v -3 h 1 v -4 h 1 v -3 h 1 v -3 h 1 v -4 h 1 v -3 h 1 v -3 h 1 v -4 h 1 v -3 h 1 v -4 h 1 v -3 h 1 v -3 h 1 v -4 h 1 v -3 h 1 v -4 h 1 v -3 h 1 v -3 h 1 v -4 h 1 v -3 h 1 v -3 h 1 v -4 h 1 v -3 h 1 v -4 h 1 v -3 h 1 v -3 h 1 v -4 h 1 v -3 h 1 v -4 h 1 v -3 h 1 v -3 h 1 v -4 h 1 v -3 h 1 v -3 h 1 v -4 h 1 v -3 h 1 v -4 h 1 v -3 h 1 v -3 h 1 v -4 h 1 v -3 h 1 v -4 h 1 v -3 h 1 v -3 h 1 v -4 h 1 v -3 h 1 v -3 h 1 v -4 h 1 v -3 h 1 v -4 h 1 v -3 h 1 v -3 h 1 v -4 h 1 v -3 h 1 v -4 h 1 v -3 h 1 v -3 h 1 v -4 h 1 v -3 h 1 v -3 h 1 v -4 h 1 v -3 h 1 v -4 h 1 v -3 h 1 v -3 h 1 v -4 h 1 v -3 h 1 v -4 h 1 v -3 h 1 v -3 h 1 v -4 h 1 v -3 h 1 v -3 h 1 v -4 h 1 v -3 h 1 v -4 h 1 v -3 h 1 v -3 h 1 v -4 h 1 v -3 h 1 v -4 h 1 v -3 h 1 v -3 h 1 v -4 h 1 v -3 h 1 v -3 h 1 v -4 h 1 v -3 h 1 v -4 h 1 v -3 h 1 v -3 h 1 v -4 h 1 v -3 h 1 v -4 h 1 v -3 h 1 v -3 h 1 v -4 h 1 v -3 h 1 v -3 h 1 v -4 h 1 v -3 h 1 v -4 h 1 v -3 h 1 v -3 h 1 v -4 h 1 v -3 h 1 v -4 h 1 v -3 h 1 v -3 h 1 v -4 h 1 v -3 h 1 v -3 h 1 v -4 h 1 v -3 h 1 v -4 h 1 v -3 h 1 v -3 h 1 v -4 h 1 v -3 h 1 v -4 h 1 v -3 h 1 v -3 h 1 v -4 h 1 v -3 h 1 v -3 h 1 v -4 h 1 v -3 h 1 v -4 h 1 v -3 h 1 v -3 h 1 v -4 h 1 v -3 h 1 v -4 h 1 v -3 h 1 v -3 h 1 v -4 h 1 v -3 h 1 v -3 h 1 v -4 h 1 v -3 h 1 v -4 h 1 v -3 h 1 v -3 h 1 v -4 h 1 v -3 h 1 v -4 h 1 v -3 h 1 v -3 h 1 v -4 h 1 v -3 h 1 v -3 h 1 v -4 h 1 v -3 h 1 v -4 h 1 v -3 h 1 v -3 h 1 v -4 h 1 v -3 h 1 v -4 h 1 v -3 h 1 v -3 h 1 v -4 h 1 v -3 h 1 v -3 h 1 v -4 h 1 v -3 h 1 v -4 h 1 v -3 h 1 v -3 h 1 v -4 h 1 v -3 h 1 v -4 h 1 v -3 h 1 v -3 h 1 v -4 h 1 v -3 h 1 v -3 h 1 v -4 h 1 v -3 h 1 v -4 h 1 v -3 h 1 v -3 h 1 v -4 h 1 v -3 h 1 v -4 h 1 v -3 h 1 v -3 h 1 v -4 h 1 v -3 h 1 v -4 h 1 v -3 h 1 v -3 h 1 v -4 h 1 v -3 h 1 v -3 h 1 v -4 h 1 v -3 h 1 v -4 h 1 v -3 h 1 v -3 h 1 v -4 h 1 v -3 h 1 v -4 h 1 v -3 h 1 v -3 h 1 v -4 h 1 v -3 h 1 v -3 h 1 v -4 h 1 v -3 h 1 v -4 h 1 v -3 h 1 v -3 h 1 v -4 h 1 v -3 h 1 v -4 h 1 v -3 h 1 v -3 h 1 v -4 h 1 v -3 h 1 v -3 h 1 v -4 h 1 v -3 h 1 v -4 h 1 v -3 h 1 v -3 h 1 v -4 h 1 v -3 h 1 v -4 h 1 v -3 h 1 v -3 h 1 v -4 h 1 v -3 h 1 v -3 h 1 v -4 h 1 v -3 h 1 v -4 h 1 v -3 h 1 v -3 h 1 v -4 h 1 v -3 h 1 v -4 h 1 v -3 h 1 v -3 h 1 v -4 h 1 v -3 h 1 v -3 h 1 v -4 h 1 v -3 h 1 v -4 h 1 v -3 h 1 v -3 h 1 v -4 h 1 v -3 h 1 v -4 h 1 v -3 h 1 v -3 h 1 v -4 h 1 v -3 h 1 v -3 h 1 v -4 h 1 v -3 h 1 v -4 h 1 v -3 h 1 v -3 h 1 v -4 h 1 v -3 h 1 v -4 h 1 v -3 h 1 v -3 h 1 v -4 h 1 v -3 h 1 v -3 h 1 v -4 h 1 v -3 h 1 v -4 h 1 v -3 h 1 v -3 h 1 v -4 h 1 v -3 h 1 v -4 h 1 v -3 h 1 v -3 h 1 v -4 h 1 v -3 h 1 v -3 h 1 v -4 h 1 v -3 h 1 v -4 h 1 v -3 h 1 v -3 h 1 v -4 h 1 v -3 h 1 v -4 h 1 v -3 h 1 v -3 h 1 v -4 h 1 v -3 h 1 v -3 h 1 v -4 h 1 v -3 h 1 v -4 h 1 v -3 h 1 v -3 h 1 v -4 h 1 v -3 h 1 v -4 h 1 v -3 h 1 v -3 h 1 v -4 h 1 v -3 h 1 v -3 h 1 v -4 h 1 v -3 h 1 v -4 h 1 v -3 h 1 v -3 h 1 v -4 h 1 v -3 h 1 v -4 h 1 v -3 h 1 v -3 h 1 v -4 h 1 v -3 h 1 v -3 h 1 v -4 h 1 v -3 h 1 v -4 h 1 v -3 h 1 v -3 h 1 v -4 h 1 v -3 h 1 v -4 h 1 v -3 h 1 v -3 h 1 v -4 h 1 v -3 h 1 v -3 h 1 v -4 h 1 v -3 h 1 v -4 h 1 v -3 h 1 v -3 h 1 v -4 h 1 v -3 h 1 v -4 h 1 v -3 h 1 v -3 h 1 v -4 h 1 v -3 h 1 v -3 h 1 v -4 h 1 v -3 h 1 v -4 h 1 v -3 h 1 v -3 h 1 v -4 h 1 v -3 h 1 v -4 h 1 v -3 h 1 v -3 h 1 v -4 h 1 v -3 h 1 v -3 h 1 v -4 h 1 v -3 h 1 v -4 h 1 v -3 h 1 v -3 h 1 v -4 h 1 v -3 h 1 v -4 h 1 v -3 h 1 v -3 h 1 v -4 h 1 v -3 h 1 v -4 h 1 v -3 h 1 v -3 h 1 v -4 h 1 v -3 h 1 v -3 h 1 v -4 h 1 v -3 h 1 v -4 h 1 v -3 h 1 v -3 h 1 v -4 h 1 v -3 h 1 v -4 h 1 v -3 h 1 v -3 h 1 v -4 h 1 v -3 h 1 v -3 h 1 v -4 h 1 v -3 h 1 v -4 h 1 v -3 h 1 v -3 h 1 v -4 h 1 v -3 h 1 v -4 h 1 v -3 h 1 v -3 h 1 v -4 h 1 v -3 h 1 v -3 h 1 v -4 h 1 v -3 h 1 v -4 h 1 v -3 h 1 v -3 h 1 v -4 h 1 v -3 h 1 v -4 h 1 v -3 h 1 v -3 h 1 v -4 h 1 v -3 h 1 v -3 h 1 v -4 h 1 v -3 h 1 v -4 h 1 v -3 h 1 v -3 h 1 v -4 h 1 v -3 h 1 v -4 h 1 v -3 h 1 v -3 h 1 v -4 h 1 v -3 h 1 v -3 h 1 v -4 h 1 v -3 h 1 v -4 h 1 v -3 h 1 v -3 h 1 v -4 h 1 v -3 h 1 v -4 h 1 v -3 h 1 v -3 h 1 v -4 h 1 v -3 h 1 v -3 h 1 v -4 h 1 v -3 h 1 v -4 h 1 v -3 h 1 v -3 h 1 v -4 h 1 v -3 h 1 v -4 h 1 v -3 h 1 v -3 h 1 v -4 h 1 v -3 h 1 v -3 h 1 v -4 h 1 v -3 h 1 v -4 h 1 v -3 h 1 v -3 h 1 v -4 h 1 v -3 h 1 v -4 h 1 v -3 h 1 v -3 h 1 v -4 h 1 v -3 h 1 v -3 h 1 v -4 h 1 v -3 h 1 v -4 h 1 v -3 h 1 v -3 h 1 v -4 h 1 v -3 h 1 v -4 h 1 v -3 h 1 v -3 h 1 v -4 h 1 v -3 h 1 v -3 h 1 v -4 h 1 v -3 h 1 v -4 h 1 v -3 h 1 v -3 h 1 v -4 h 1 v -3 h 1 v -4 h 1 v -3 h 1 v -3 h 1 v -4 h 1 v -3 h 1 v -3 h 1 v -4 h 1 v -3 h 1 v -4 h 1 v -3 h 1 v -3 h 1 v -4 h 1 v -3 h 1 v -4 h 1 v -3 h 1 v -3 h 1 v -4 h 1 v -3 h 1 v -3 h 1 v -4 h 1 v -3 h 1 v -4 h 1 v -3 h 1 v -3 h 1 v -4 h 1 v -3 h 1 v -4 h 1 v -3 h 1 v -3 h 1 v -4 h 1 v -3 h 1 v -3 h 1 v -4 h 1 v -3 h 1 v -4 h 1 v -3 h 1 v -3 h 1 v -4 h 1 v -3 h 1 v -4 h 1 v -3 h 1 v -3 h 1 v -4 h 1 v -3 h 1 v -3 h 1 v -4 h 1 v -3 h 1 v -4 h 1 v -3 h 1 v -3 h 1 v -4 h 1 v -3 h 1 v -4 h 1 v -3 h 1 v -3 h 1 v -4 h 1 v -3 h 1 v -3 h 1 v -4 h 1 v -3 h 1 v -4 h 1 v -3 h 1 v -3 h 1 v -4 h 1 v -3 h 1 v -4 h 1 v -3 h 1 v -3 h 1 v -4 h 1 v -3 h 1 v -4 h 1 v -3 h 1 v -3 h 1 v -4 h 1 v -3 h 1 v -3 h 1 v -4 h 1 v -3 h 1 v -4 h 1 v -3 h 1 v -3 h 1 v -4 h 1 v -3 h 1 v -4 h 1 v -3 h 1 v -3 h 1 v -4 h 1 v -3 h 1 v -3 h 1 v -4 h 1 v -3 h 1 v -4 h 1 v -3 h 1 v -3 h 1 v -4 h 1 v -3 h 1 v -4 h 1 v -3 h 1 v -3 h 1 v -4 h 1 v -3 h 1 v -3 h 1 v -4 h 1 v -3 h 1 v -4 h 1 v -3 h 1 v -3 h 1 v -4 h 1 v -3 h 1 v -4 h 1 v -3 h 1 v -3 h 1 v -4 h 1 v -3 h 1 v -3 h 1 v -4 h 1 v -3 h 1 v -4 h 1 v -3 h 1 v -3 h 1 v -4 h 1 v -3 h 1 v -4 h 1 v -3 h 1 v -3 h 1 v -4 h 1 v -3 h 1 v -3 h 1 v -4 h 1 v -3 h 1 v -4 h 1 v -3 h 1 v -3 h 1 v -4 h 1 v -3 h 1 v -4 h 1 v -3 h 1 v -3 h 1 v -4 h 1 v -3 h 1 v -3 h 1 v -4 h 1 v -3 h 1 v -4 h 1 v -3 h 1 v -3 h 1 v -4 h 1 v -3 h 1 v -4 h 1 v -3 h 1 v -3 h 1 v -4 h 1 v -3 h 1 v -3 h 1 v -4 h 1 v -3 h 1 v -4 h 1 v -3 h 1 v -3 h 1 v -4 h 1 v -3 h 1 v -4 h 1 v -3 h 1 v -3 h 1 v -4 h 1 v -3 h 1 v -3 h 1 v -4 h 1 v -3 h 1 v -4 h 1 v -3 h 1 v -3 h 1 v -4 h 1 v -3 h 1 v -4 h 1 v -3 h 1 v -3 h 1 v -4 h 1 v -3 h 1 v -3 h 1 v -4 h 1 v -3 h 1 v -4 h 1 v -3 h 1 v -3 h 1 v -4 h 1 v -3 h 1 v -4 h 1 v -3 h 1 v -3 h 1 v -4 h 1 v -3 h 1 v -3 h 1 v -4 h 1 v -3 h 1 v -4 h 1 v -3 h 1 v -3 h 1 v -4 h 1 v -3 h 1 v -4 h 1 v -3 h 1 v -3 h 1 v -4 h 1 v -3 h 1 v -3 h 1 v -4 h 1 v -3 h 1 v -4 h 1 v -3 h 1 v -3 h 1 v -4 h 1 v -3 h 1 v -4 h 1 v -3 h 1 v -3 h 1 v -4 h 1 v -3 h 1 v -3 h 1 v -4 h 1 v -3 h 1 v -4 h 1 v -3 h 1 v -3 h 1 v -4 h 1 v -3 h 1 v -4 h 1 v -3 h 1 v -3 h 1 v -4 h 1 v -3 h 1 v -3 h 1 v -4 h 1 v -3 h 1 v -4 h 1 v -3 h 1 v -3 h 1 v -4 h 1 v -3 h 1 v -4 h 1 v -3 h 1 v -3 h 1 v -4 h 1 v -3 h 1 v -3 h 1 v -4 h 1 v -3 h 1 v -4 h 1 v -3 h 1 v -3 h 1 v -4 h 1 v -3 h 1 v -4 h 1 v -3 h 1 v -3 h 1 v -4 h 1 v -3 h 1 v -4 h 1 v -3 h 1 v -3 h 1 v -4 h 1 v -3 h 1 v -3 h 1 v -4 h 1 v -3 h 1 v -4 h 1 v -3 h 1 v -3 h 1 v -4 h 1 v -3 h 1 v -4 h 1 v -3 h 1 v -3 h 1 v -4 h 1 v -3 h 1 v -3 h 1 v -4 h 1 v -3 h 1 v -4 h 1 v -3 h 1 v -3 h 1 v -4 h 1 v -3 h 1 v -4 h 1 v -3 h 1 v -3 h 1 v -4 h 1 v -3 h 1 v -3 h 1 v -4 h 1 v -3 h 1 v -4 h 1 v -3 h 1 v -3 h 1 v -4 h 1 v -3 h 1 v -4 h 1 v -3 h 1 v -3 h 1 v -4 h 1 v -3 h 1 v -3 h 1 v -4 h 1 v -3 h 1 v -4 h 1 v -3 h 1 v -3 h 1 v -4 h 1 v -3 h 1 v -4 h 1 v -3 h 1 v -3 h 1 v -4 h 1 v -3 h 1 v -3 h 1 v -4 h 1 v -3 h 1 v -4 h 1 v -3 h 1 v -3 h 1 v -4 h 1 v -3 h 1 v -4 h 1 v -3 h 1 v -3 h 1 v -4 h 1 v -3 h 1 v -3 h 1 v -4 h 1 v -3 h 1 v -4 h 1 v -3 h 1 v -3 h 1 v -4 h 1 v -3 h 1 v -4 h 1 v -3 h 1 v -3 h 1 v -4 h 1 v -3 h 1 v -3 h 1 v -4 h 1 v -3 h 1 v -4 h 1 v -3 h 1 v -3 h 1 v -4 h 1 v -3 h 1 v -4 h 1 v -3 h 1 v -3 h 1 v -4 h 1 v -3 h 1 v -3 h 1 v -4 h 1 v -3 h 1 v -4 h 1 v -3 h 1 v -3 h 1 v -4 h 1 v -3 h 1 v -4 h 1 v -3 h 1 v -3 h 1 v -4 h 1 v -3 h 1 v -3 h 1 v -4 h 1 v -3 h 1 v -4 h 1 v -3 h 1 v -3 h 1 v -4 h 1 v -3 h 1 v -4 h 1 v -3 h 1 v -3 h 1 v -4 h 1 v -3 h 1 v -3 h 1 v -4 h 1 v -3 h 1 v -4 h 1 v -3 h 1 v -3 h 1 v -4 h 1 v -3 h 1 v -4 h 1 v -3 h 1 v -3 h 1 v -4 h 1 v -3 h 1 v -3 h 1 v -4 h 1 v -3 h 1 v -4 h 1 v -3 h 1 v -3 h 1 v -4 h 1 v -3 h 1 v -4 h 1 v -3 h 1 v -3 h 1 v -4 h 1 v -3 h 1 v -3 h 1 v -4 h 1 v -3 h 1 v -4 h 1 v -3 h 1 v -3 h 1 v -4 h 1 v -3 h 1 v -4 h 1 v -3 h 1 v -3 h 1 v -4 h 1 v -3 h 1 v -3 h 1 v -4 h 1 v -3 h 1 v -4 h 1 v -3 h 1 v -3 h 1 v -4 h 1 v -3 h 1 v -4 h 1 v -3 h 1 v -3 h 1 v -4 h 1 v -3 h 1 v -3 h 1 v -4 h 1 v -3 h 1 v -4 h 1 v -3 h 1 v -3 h 1 v -4 h 1 v -3 h 1 v -4 h 1 v -3 h 1 v -3 h 1 v -4 h 1 v -3 h 1 v -3 h 1 v -4 h 1 v -3 h 1 v -4 h 1 v -3 h 1 v -3 h 1 v -4 h 1 v -3 h 1 v -4 h 1 v -3 h 1 v -3 h 1 v -4 h 1 v -3 h 1 v -4 h 1 v -3 h 1 v -3 h 1 v -4 h 1 v -3 h 1 v -3 h 1 v -4 h 1 v -3 h 1 v -4 h 1 v -3 h 1 v -3 h 1 v -4 h 1 v -3 h 1 v -4 h 1 v -3 h 1 v -3 h 1 v -4 h 1 v -3 h 1 v -3 h 1 v -4 h 1 v -3 h 1 v -4 h 1 v -3 h 1 v -3 h 1 v -4 h 1 v -3 h 1 v -4 h 1 v -3 h 1 v -3 h 1 v -4 h 1 v -3 h 1 v -3 h 1 v -4 h 1 v -3 h 1 v -4 h 1 v -3 h 1 v -3 h 1 v -4 h 1 v -3 h 1 v -4 h 1 v -3 h 1 v -3 h 1 v -4 h 1 v -3 h 1 v -3 h 1 v -4 h 1 v -3 h 1 v -4 h 1 v -3 h 1 v -3 h 1 v -4 h 1 v -3 h 1 v -4 h 1 v -3 h 1 v -3 h 1 v -4 h 1 v -3 h 1 v -3 h 1 v -4 h 1 v -3 h 1 v -4 h 1 v -3 h 1 v -3 h 1 v -4 h 1 v -3 h 1 v -4 h 1 v -3 h 1 v -3 h 1 v -4 h 1 v -3 h 1 v -3 h 1 v -4 h 1 v -3 h 1 v -4 h 1 v -3 h 1 v -3 h 1 v -4 h 1 v -3 h 1 v -4 h 1 v -3 h 1 v -3 h 1 v -4 h 1 v -3 h 1 v -3 h 1 v -4 h 1 v -3 h 1 v -4 h 1 v -3 h 1 v -3 h 1 v -4 h 1 v -3 h 1 v -4 h 1 v -3 h 1 v -3 h 1 v -4 h 1 v -3 h 1 v -3 h 1 v -4 h 1 v -3 h 1 v -4 h 1 v -3 h 1 v -3 h 1 v -4 h 1 v -3 h 1 v -4 h 1 v -3 h 1 v -3 h 1 v -4 h 1 v -3 h 1 v -3 h 1 v -4 h 1 v -3 h 1 v -4 h 1 v -3 h 1 v -3 h 1 v -4 h 1 v -3 h 1 v -4 h 1 v -3 h 1 v -3 h 1 v -4 h 1 v -3 h 1 v -3 h 1 v -4 h 1 v -3 h 1 v -4 h 1 v -3 h 1 v -3 h 1 v -4 h 1 v -3 h 1 v -4 h 1 v -3 h 1 v -3 h 1 v -4 h 1 v -3 h 1 v -3 h 1 v -4 h 1 v -3 h 1 v -4 h 1 v -3 h 1 v -3 h 1 v -4 h 1 v -3 h 1 v -4 h 1 v -3 h 1 v -3 h 1 v -4 h 1 v -3 h 1 v -3 h 1 v -4 h 1 v -3 h 1 v -4 h 1 v -3 h 1 v -3 h 1 v -4 h 1 v -3 h 1 v -4 h 1 v -3 h 1 v -3 h 1 v -4 h 1 v -3 h 1 v -3 h 1 v -4 h 1 v -3 h 1 v -4 h 1 v -3 h 1 v -3 h 1 v -4 h 1 v -3 h 1 v -4 h 1 v -3 h 1 v -3 h 1 v -4 h 1 v -3 h 1 v -3 h 1 v -4 h 1 v -3 h 1 v -4 h 1 v -3 h 1 v -3 h 1 v -4 h 1 v -3 h 1 v -4 h 1 v -3 h 1 v -3 h 1 v -4 h 1 v -3 h 1 v -4 h 1 v -3 h 1 v -3 h 1 v -4 h 1 v -3 h 1 v -3 h 1 v -4 h 1 v -3 h 1 v -4 h 1 v -3 h 1 v -3 h 1 v -4 h 1 v -3 h 1 v -4 h 1 v -3 h 1 v -3 h 1 v -4 h 1 v -3 h 1 v -3 h 1 v -4 h 1 v -3 h 1 v -4 h 1 v -3 h 1 v -3 h 1 v -4 h 1 v -3 h 1 v -4 h 1 v -3 h 1 v -3 h 1 v -4 h 1 v -3 h 1 v -3 h 1 v -4 h 1 v -3 h 1 v -4 h 1 v -3 h 1 v -3 h 1 v -4 h 1 v -3 h 1 v -4 h 1 v -3 h 1 v -3 h 1 v -4 h 1 v -3 h 1 v -3 h 1 v -4 h 1 v -3 h 1 v -4 h 1 v -3 h 1 v -3 h 1 v -4 h 1 v -3 h 1 v -4 h 1 v -3 h 1 v -3 h 1 v -4 h 1 v -3 h 1 v -3 h 1 v -4 h 1 v -3 h 1 v -4 h 1 v -3 h 1 v -3 h 1 v -4 h 1 v -3 h 1 v -4 h 1 v -3 h 1 v -3 h 1 v -4 h 1 v -3 h 1 v -3 h 1 v -4 h 1 v -3 h 1 v -4 h 1 v -3 h 1 v -3 h 1 v -4 h 1 v -3 h 1 v -4 h 1 v -3 h 1 v -3 h 1 v -4 h 1 v -3 h 1 v -3 h 1 v -4 h 1 v -3 h 1 v -4 h 1 v -3 h 1 v -3 h 1 v -4 h 1 v -3 h 1 v -4 h 1 v -3 h 1 v -3 h 1 v -4 h 1 v -3 h 1 v -3 h 1 v -4 h 1 v -3 h 1 v -4 h 1 v -3 h 1 v -3 h 1 v -4 h 1 v -3 h 1 v -4 h 1 v -3 h 1 v -3 h 1 v -4 h 1 v -3 h 1 v -3 h 1 v -4 h 1 v -3 h 1 v -4 h 1 v -3 h 1 v -3 h 1 v -4 h 1 v -3 h 1 v -4 h 1 v -3 h 1 v -3 h 1 v -4 h 1 v -3 h 1 v -3 h 1 v -4 h 1 v -3 h 1 v -4 h 1 v -3 h 1 v -3 h 1 v -4 h 1 v -3 h 1 v -4 h 1 v -3 h 1 v -3 h 1 v -4 h 1 v -3 h 1 v -3 h 1 v -4 h 1 v -3 h 1 v -4 h 1 v -3 h 1 v -3 h 1 v -4 h 1 v -3 h 1 v -4 h 1 v -3 h 1 v -3 h 1 v -4 h 1 v -3 h 1 v -3 h 1 v -4 h 1 v -3 h 1 v -4 h 1 v -3 h 1 v -3 h 1 v -4 h 1 v -3 h 1 v -4 h 1 v -3 h 1 v -3 h 1 v -4 h 1 v -3 h 1 v -3 h 1 v -4 h 1 v -3 h 1 v -4 h 1 v -3 h 1 v -3 h 1 v -4 h 1 v -3 h 1 v -4 h 1 v -3 h 1 v -3 h 1 v -4 h 1 v -3 h 1 v -3 h 1 v -4 h 1 v -3 h 1 v -4 h 1 v -3 h 1 v -3 h 1 v -4 h 1 v -3 h 1 v -4 h 1 v -3 h 1 v -3 h 1 v -4 h 1 v -3 h 1 v -4 h 1 v -3 h 1 v -3 h 1 v -4 h 1 v -3 h 1 v -3 h 1 v -4 h 1 v -3 h 1 v -4 h 1 v -3 h 1 v -3 h 1 v -4 h 1 v -3 h 1 v -4 h 1 v -3 h 1 v -3 h 1 v -4 h 1 v -3 h 1 v -3 h 1 v -4 h 1 v -3 h 1 v -4 h 1 v -3 h 1 v -3 h 1 v -4 h 1 v -3 h 1 v -4 h 1 v -3 h 1 v -3 h 1 v -4 h 1 v -3 h 1 v -3 h 1 v -4 h 1 v -3 h 1 v -4 h 1 v -3 h 1 v -3 h 1 v -4 h 1 v -3 h 1 v -4 h 1 v -3 h 1 v -3 h 1 v -4 h 1 v -3 h 1 v -3 h 1 v -4 h 1 v -3 h 1 v -4 h 1 v -3 h 1 v -3 h 1 v -4 h 1 v -3 h 1 v -4 h 1 v -3 h 1 v -3 h 1 v -4 h 1 v -3 h 1 v -3 h 1 v -4 h 1 v -3 h 1 v -4 h 1 v -3 h 1 v -3 h 1 v -4 h 1 v -3 h 1 v -4 h 1 v -3 h 1 v -3 h 1 v -4 h 1 v -3 h 1 v -3 h 1 v -4 h 1 v -3 h 1 v -4 h 1 v -3 h 1 v -3 h 1 v -4 h 1 v -3 h 1 v -4 h 1 v -3 h 1 v -3 h 1 v -4 h 1 v -3 h 1 v -3 h 1 v -4 h 1 v -3 h 1 v -4 h 1 v -3 h 1 v -3 h 1 v -4 h 1 v -3 h 1 v -4 h 1 v -3 h 1 v -3 h 1 v -4 h 1 v -3 h 1 v -3 h 1 v -4 h 1 v -3 h 1 v -4 h 1 v -3 h 1 v -3 h 1 v -4 h 1 v -3 h 1 v -4 h 1 v -3 h 1 v -3 h 1 v -4 h 1 v -3 h 1 v -3 h 1 v -4 h 1 v -3 h 1 v -4 h 1 v -3 h 1 v -3 h 1 v -4 h 1 v -3 h 1 v -4 h 1 v -3 h 1 v -3 h 1 v -4 h 1 v -3 h 1 v -3 h 1 v -4 h 1 v -3 h 1 v -4 h 1 v -3 h 1 v -3 h 1 v -4 h 1 v -3 h 1 v -4 h 1 v -3 h 1 v -3 h 1 v -4 h 1 v -3 h 1 v -3 h 1 v -4 h 1 v -3 h 1 v -4 h 1 v -3 h 1 v -3 h 1 v -4 h 1 v -3 h 1 v -4 h 1 v -3 h 1 v -3 h 1 v -4 h 1 v -3 h 1 v -3 h 1 v -4 h 1 v -3 h 1 v -4 h 1 v -3 h 1 v -3 h 1 v -4 h 1 v -3 h 1 v -4 h 1 v -3 h 1 v -3 h 1 v -4 h 1 v -3 h 1 v -3 h 1 v -4 h 1 v -3 h 1 v -4 h 1 v -3 h 1 v -3 h 1 v -4 h 1 v -3 h 1 v -4 h 1 v -3 h 1 v -3 h 1 v -4 h 1 v -3 h 1 v -3 h 1 v -4 h 1 v -3 h 1 v -4 h 1 v -3 h 1 v -3 h 1 v -4 h 1 v -3 h 1 v -4 h 1 v -3 h 1 v -3 h 1 v -4 h 1 v -3 h 1 v -4 h 1 v -3 h 1 v -3 h 1 v -4 h 1 v -3 h 1 v -3 h 1 v -4 h 1 v -3 h 1 v -4 h 1 v -3 h 1 v -3 h 1 v -4 h 1 v -3 h 1 v -4 h 1 v -3 h 1 v -3 h 1 v -4 h 1 v -3 h 1 v -3 h 1 v -4 h 1 v -3 h 1 v -4 h 1 v -3 h 1 v -3 h 1 v -4 h 1 v -3 h 1 v -4 h 1 v -3 h 1 v -3 h 1 v -4 h 1 v -3 h 1 v -3 h 1 v -4 h 1 v -3 h 1 v -4 h 1 v -3 h 1 v -3 h 1 v -4 h 1 v -3 h 1 v -4 h 1 v -3 h 1 v -3 h 1 v -4 h 1 v -3 h 1 v -3 h 1 v -4 h 1 v -3 h 1 v -4 h 1 v -3 h 1 v -3 h 1 v -4 h 1 v -3 h 1 v -4 h 1 v -3 h 1 v -3 h 1 v -4 h 1 v -3 h 1 v -3 h 1 v -4 h 1 v -3 h 1 v -4 h 1 v -3 h 1 v -3 h 1 v -4 h 1 v -3 h 1 v -4 h 1 v -3 h 1 v -3 h 1 v -4 h 1 v -3 h 1 v -3 h 1 v -4 h 1 v -3 h 1 v -4 h 1 v -3 h 1 v -3 h 1 v -4 h 1 v -3 h 1 v -4 h 1 v -3 h 1 v -3 h 1 v -4 h 1 v -3 h 1 v -3 h 1 v -4 h 1 v -3 h 1 v -4 h 1 v -3 h 1 v -3 h 1 v -4 h 1 v -3 h 1 v -4 h 1 v -3 h 1 v -3 h 1 v -4 h 1 v -3 h 1 v -3 h 1 v -4 h 1 v -3 h 1 v -4 h 1 v -3 h 1 v -3 h 1 v -4 h 1 v -3 h 1 v -4 h 1 v -3 h 1 v -3 h 1 v -4 h 1 v -3 h 1 v -3 h 1 v -4 h 1 v -3 h 1 v -4 h 1 v -3 h 1 v -3 h 1 v -4 h 1 v -3 h 1 v -4 h 1 v -3 h 1 v -3 h 1 v -4 h 1 v -3 h 1 v -3 h 1 v -4 h 1 v -3 h 1 v -4 h 1 v -3 h 1 v -3 h 1 v -4 h 1 v -3 h 1 v -4 h 1 v -3 h 1 v -3 h 1 v -4 h 1 v -3 h 1 v -3 h 1 v -4 h 1 v -3 h 1 v -4 h 1 v -3 h 1 v -3 h 1 v -4 h 1 v -3 h 1 v -4 h 1 v -3 h 1 v -3 h 1 v -4 h 1 v -3 h 1 v -3 h 1 v -4 h 1 v -3 h 1 v -4 h 1 v -3 h 1 v -3 h 1 v -4 h 1 v -3 h 1 v -4 h 1 v -3 h 1 v -3 h 1 v -4 h 1 v -3 h 1 v -3 h 1 v -4 h 1 v -3 h 1 v -4 h 1 v -3 h 1 v -3 h 1 v -4 h 1 v -3 h 1 v -4 h 1 v -3 h 1 v -3 h 1 v -4 h 1 v -3 h 1 v -3 h 1 v -4 h 1 v -3 h 1 v -4 h 1 v -3 h 1 v -3 h 1 v -4 h 1 v -3 h 1 v -4 h 1 v -3 h 1 v -3 h 1 v -4 h 1 v -3 h 1 v -4 h 1 v -3 h 1 v -3 h 1 v -4 h 1 v -3 h 1 v -3 h 1 v -4 h 1 v -3 h 1 v -4 h 1 v -4 h 1 v -3 h 1 v -4 h 1 v -3 h 1 v -4 h 1 v -4 h 1 v -3 h 1 v -4 h 1 v -4 h 1 v -3 h 1 v -4 h 1 v -4 h 1 v -4 h 1 v -4 h 1 v -4 h 1 v -4 h 1 v -4 h 1 v -4 h 1 v -4 h 1 v -4 h 1 v -3 h 1 v -4 h 1 v -4 h 1 v -4 h 1 v -4 h 1 v -5 h 1 v -4 h 1 v -4 h 1 v -5 h 1 v -4 h 1 v -5 h 1 v -4 h 1 v -5 h 1 v -4 h 1 v -5 h 1 v -4 h 1 v -5 h 1 v -4 h 1 v -5 h 1 v -5 h 1 v -5 h 1 v -5 h 1 v -5 h 1 v -5 h 1 v -5 h 1 v -6 h 1 v -5 h 1 v -5 h 1 v -5 h 1 v -5 h 1 v -6 h 1 v -6 h 1 v -6 h 1 v -6 h 1 v -6 h 1 v -5 h 1 v -6 h 1 v -6 h 1 v -6 h 1 v -6 h 1 v -7 h 1 v -7 h 1 v -7 h 1 v -7 h 1 v -7 h 1 v -8 h 1 v -7 h 1 v -7 h 1 v -8 h 1 v -9 h 1 v -8 h 1 v -9 h 1 v -9 h 1 v -8 h 1 v -9 h 1 v -11 h 1 v -12 h 1 v -11 h 1 v -11 h 1 v -12 h 1 v -14 h 1 v -17 h 1 v -16 h 1 v -17 h 1 v -29 h 1 v -29 h 1 v -89 h -1 v -41 h -1 v -22 h -1 v -23 h -1 v -15 h -1 v -14 h -1 v -15 h -1 v -14 h -1 v -11 h -1 v -11 h -1 v -10 h -1 v -10 h -1 v -10 h -1 v -11 h -1 v -8 h -1 v -8 h -1 v -8 h -1 v -8 h -1 v -8 h -1 v -8 h -1 v -8 h -1 v -7 h -1 v -7 h -1 v -7 h -1 v -6 h -1 v -7 h -1 v -7 h -1 v -6 h -1 v -7 h -1 v -7 h -1 v -5 h -1 v -6 h -1 v -6 h -1 v -5 h -1 v -6 h -1 v -6 h -1 v -5 h -1 v -6 h -1 v -5 h -1 v -6 h -1 v -5 h -1 v -5 h -1 v -5 h -1 v -5 h -1 v -5 h -1 v -5 h -1 v -5 h -1 v -4 h -1 v -5 h -1 v -5 h -1 v -5 h -1 v -5 h -1 v -4 h -1 v -5 h -1 v -4 h -1 v -4 h -1 v -5 h -1 v -4 h -1 v -4 h -1 v -5 h -1 v -4 h -1 v -4 h -1 v -4 h -1 v -5 h -1 v -4 h -1 v -4 h -1 v -4 h -1 v -4 h -1 v -4 h -1 v -4 h -1 v -3 h -1 v -4 h -1 v -4 h -1 v -4 h -1 v -4 h -1 v -4 h -1 v -3 h -1 v -4 h -1 v -4 h -1 v -4 h -1 v -4 h -1 v -3 h -1 v -4 h -1 v -3 h -1 v -4 h -1 v -3 h -1 v -3 h -1 v -4 h -1 v -3 h -1 v -4 h -1 v -3 h -1 v -4 h -1 v -3 h -1 v -4 h -1 v -3 h -1 v -4 h -1 v -3 h -1 v -3 h -1 v -3 h -1 v -4 h -1 v -3 h -1 v -3 h -1 v -3 h -1 v -3 h -1 v -3 h -1 v -3 h -1 v -4 h -1 v -3 h -1 v -3 h -1 v -3 h -1 v -3 h -1 v -3 h -1 v -4 h -1 v -3 h -1 v -3 h -1 v -3 h -1 v -3 h -1 v -2 h -1 v -3 h -1 v -3 h -1 v -3 h -1 v -3 h -1 v -3 h -1 v -3 h -1 v -3 h -1 v -3 h -1 v -2 h -1 v -3 h -1 v -3 h -1 v -3 h -1 v -3 h -1 v -3 h -1 v -3 h -1 v -3 h -1 v -2 h -1 v -3 h -1 v -3 h -1 v -2 h -1 v -3 h -1 v -3 h -1 v -2 h -1 v -3 h -1 v -3 h -1 v -2 h -1 v -3 h -1 v -3 h -1 v -2 h -1 v -3 h -1 v -3 h -1 v -2 h -1 v -3 h -1 v -3 h -1 v -2 h -1 v -3 h -1 v -2 h -1 v -3 h -1 v -2 h -1 v -3 h -1 v -2 h -1 v -3 h -1 v -2 h -1 v -3 h -1 v -2 h -1 v -3 h -1 v -2 h -1 v -3 h -1 v -2 h -1 v -2 h -1 v -3 h -1 v -2 h -1 v -3 h -1 v -2 h -1 v -3 h -1 v -2 h -1 v -3 h -1 v -2 h -1 v -3 h -1 v -2 h -1 v -2 h -1 v -3 h -1 v -2 h -1 v -2 h -1 v -2 h -1 v -3 h -1 v -2 h -1 v -2 h -1 v -2 h -1 v -3 h -1 v -2 h -1 v -2 h -1 v -3 h -1 v -2 h -1 v -2 h -1 v -2 h -1 v -3 h -1 v -2 h -1 v -2 h -1 v -3 h -1 v -2 h -1 v -2 h -1 v -2 h -1 v -3 h -1 v -2 h -1 v -2 h -1 v -2 h -1 v -2 h -1 v -2 h -1 v -2 h -1 v -3 h -1 v -2 h -1 v -2 h -1 v -2 h -1 v -2 h -1 v -2 h -1 v -2 h -1 v -2 h -1 v -3 h -1 v -2 h -1 v -2 h -1 v -2 h -1 v -2 h -1 v -2 h -1 v -2 h -1 v -2 h -1 v -3 h -1 v -2 h -1 v -2 h -1 v -2 h -1 v -2 h -1 v -2 h -1 v -2 h -1 v -2 h -1 v -2 h -1 v -2 h -1 v -2 h -1 v -2 h -1 v -2 h -1 v -2 h -1 v -2 h -1 v -2 h -1 v -2 h -1 v -2 h -1 v -2 h -1 v -2 h -1 v -2 h -1 v -2 h -1 v -2 h -1 v -2 h -1 v -2 h -1 v -2 h -1 v -2 h -1 v -1 h -1 v -2 h -1 v -2 h -1 v -2 h -1 v -2 h -1 v -2 h -1 v -2 h -1 v -2 h -1 v -2 h -1 v -1 h -1 v -2 h -1 v -2 h -1 v -2 h -1 v -2 h -1 v -2 h -1 v -2 h -1 v -2 h -1 v -1 h -1 v -2 h -1 v -2 h -1 v -2 h -1 v -2 h -1 v -2 h -1 v -2 h -1 v -1 h -1 v -2 h -1 v -2 h -1 v -2 h -1 v -2 h -1 v -2 h -1 v -2 h -1 v -1 h -1 v -2 h -1 v -2 h -1 v -2 h -1 v -1 h -1 v -2 h -1 v -2 h -1 v -2 h -1 v -1 h -1 v -2 h -1 v -2 h -1 v -2 h -1 v -1 h -1 v -2 h -1 v -2 h -1 v -2 h -1 v -1 h -1 v -2 h -1 v -2 h -1 v -2 h -1 v -1 h -1 v -2 h -1 v -2 h -1 v -2 h -1 v -1 h -1 v -2 h -1 v -2 h -1 v -2 h -1 v -1 h -1 v -2 h -1 v -2 h -1 v -1 h -1 v -2 h -1 v -2 h -1 v -1 h -1 v -2 h -1 v -2 h -1 v -1 h -1 v -2 h -1 v -2 h -1 v -1 h -1 v -2 h -1 v -2 h -1 v -1 h -1 v -2 h -1 v -2 h -1 v -1 h -1 v -2 h -1 v -2 h -1 v -1 h -1 v -2 h -1 v -2 h -1 v -1 h -1 v -2 h -1 v -1 h -1 v -2 h -1 v -2 h -1 v -1 h -1 v -2 h -1 v -1 h -1 v -2 h -1 v -2 h -1 v -1 h -1 v -2 h -1 v -1 h -1 v -2 h -1 v -2 h -1 v -1 h -1 v -2 h -1 v -1 h -1 v -2 h -1 v -2 h -1 v -1 h -1 v -2 h -1 v -1 h -1 v -2 h -1 v -1 h -1 v -2 h -1 v -1 h -1 v -2 h -1 v -1 h -1 v -2 h -1 v -1 h -1 v -2 h -1 v -1 h -1 v -2 h -1 v -1 h -1 v -2 h -1 v -1 h -1 v -2 h -1 v -1 h -1 v -2 h -1 v -2 h -1 v -1 h -1 v -2 h -1 v -1 h -1 v -2 h -1 v -1 h -1 v -2 h -1 v -1 h -1 v -2 h -1 v -1 h -1 v -2 h -1 v -1 h -1 v -2 h -1 v -1 h -1 v -2 h -1 v -1 h -1 v -1 h -1 v -2 h -1 v -1 h -1 v -2 h -1 v -1 h -1 v -2 h -1 v -1 h -1 v -1 h -1 v -2 h -1 v -1 h -1 v -2 h -1 v -1 h -1 v -2 h -1 v -1 h -1 v -1 h -1 v -2 h -1 v -1 h -1 v -2 h -1 v -1 h -1 v -2 h -1 v -1 h -1 v -2 h -1 v -1 h -1 v -1 h -1 v -2 h -1 v -1 h -1 v -2 h -1 v -1 h -1 v -2 h -1 v -1 h -1 v -1 h -1 v -2 h -1 v -1 h -1 v -2 h -1 v -1 h -1 v -2 h -1 v -1 h -1 v -1 h -1 v -2 h -1 v -1 h -1 v -2 h -1 v -1 h -1 v -1 h -1 v -2 h -1 v -1 h -1 v -1 h -1 v -2 h -1 v -1 h -1 v -1 h -1 v -2 h -1 v -1 h -1 v -1 h -1 v -2 h -1 v -1 h -1 v -1 h -1 v -2 h -1 v -1 h -1 v -1 h -1 v -2 h -1 v -1 h -1 v -1 h -1 v -2 h -1 v -1 h -1 v -1 h -1 v -2 h -1 v -1 h -1 v -1 h -1 v -2 h -1 v -1 h -1 v -1 h -1 v -2 h -1 v -1 h -1 v -1 h -1 v -2 h -1 v -1 h -1 v -1 h -1 v -2 h -1 v -1 h -1 v -1 h -1 v -2 h -1 v -1 h -1 v -1 h -1 v -2 h -1 v -1 h -1 v -1 h -1 v -2 h -1 v -1 h -1 v -1 h -1 v -1 h -1 v -2 h -1 v -1 h -1 v -1 h -1 v -1 h -1 v -2 h -1 v -1 h -1 v -1 h -1 v -1 h -1 v -2 h -1 v -1 h -1 v -1 h -1 v -1 h -1 v -2 h -1 v -1 h -1 v -1 h -1 v -1 h -1 v -2 h -1 v -1 h -1 v -1 h -1 v -1 h -1 v -2 h -1 v -1 h -1 v -1 h -1 v -1 h -1 v -2 h -1 v -1 h -1 v -1 h -1 v -1 h -1 v -2 h -1 v -1 h -1 v -1 h -1 v -1 h -1 v -2 h -1 v -1 h -1 v -1 h -1 v -1 h -1 v -2 h -1 v -1 h -1 v -1 h -1 v -1 h -1 v -2 h -1 v -1 h -1 v -1 h -1 v -1 h -1 v -2 h -1 v -1 h -1 v -1 h -1 v -1 h -1 v -1 h -1 v -1 h -1 v -2 h -1 v -1 h -1 v -1 h -1 v -1 h -1 v -1 h -1 v -1 h -1 v -2 h -1 v -1 h -1 v -1 h -1 v -1 h -1 v -1 h -1 v -1 h -1 v -2 h -1 v -1 h -1 v -1 h -1 v -1 h -1 v -1 h -1 v -1 h -1 v -2 h -1 v -1 h -1 v -1 h -1 v -1 h -1 v -1 h -1 v -1 h -1 v -2 h -1 v -1 h -1 v -1 h -1 v -1 h -1 v -1 h -1 v -1 h -1 v -2 h -1 v -1 h -1 v -1 h -1 v -1 h -1 v -1 h -1 v -1 h -1 v -2 h -1 v -1 h -1 v -1 h -1 v -1 h -1 v -1 h -1 v -1 h -1 v -2 h -1 v -1 h -1 v -1 h -1 v -1 h -1 v -1 h -1 v -1 h -1 v -1 h -1 v -1 h -1 v -1 h -1 v -1 h -1 v -1 h -1 v -2 h -1 v -1 h -1 v -1 h -1 v -1 h -1 v -1 h -1 v -1 h -1 v -1 h -1 v -1 h -1 v -1 h -1 v -1 h -1 v -1 h -1 v -2 h -1 v -1 h -1 v -1 h -1 v -1 h -1 v -1 h -1 v -1 h -1 v -1 h -1 v -1 h -1 v -1 h -1 v -1 h -1 v -2 h -1 v -1 h -1 v -1 h -1 v -1 h -1 v -1 h -1 v -1 h -1 v -1 h -1 v -1 h -1 v -1 h -1 v -1 h -1 v -1 h -1 v -2 h -1 v -1 h -1 v -1 h -1 v -1 h -1 v -1 h -1 v -1 h -1 v -1 h -1 v -1 h -1 v -1 h -1 v -1 h -1 v -1 h -1 v -1 h -1 v -1 h -1 v -1 h -1 v -1 h -1 v -1 h -1 v -1 h -1 v -1 h -1 v -1 h -1 v -1 h -1 v -1 h -1 v -1 h -1 v -1 h -1 v -1 h -1 v -1 h -1 v -1 h -1 v -2 h -1 v -1 h -1 v -1 h -1 v -1 h -1 v -1 h -1 v -1 h -1 v -1 h -1 v -1 h -1 v -1 h -1 v -1 h -1 v -1 h -1 v -1 h -1 v -1 h -1 v -1 h -1 v -1 h -1 v -1 h -1 v -1 h -1 v -1 h -1 v -1 h -1 v -1 h -1 v -1 h -1 v -1 h -1 v -1 h -1 v -1 h -1 v -1 h -1 v -1 h -1 v -1 h -1 v -1 h -1 v -1 h -1 v -1 h -1 v -1 h -1 v -1 h -1 v -1 h -1 v -1 h -1 v -1 h -1 v -1 h -1 v -1 h -1 v -1 h -1 v -1 h -1 v -1 h -1 v -1 h -1 v -1 h -1 v -1 h -1 v -1 h -1 v -1 h -1 v -1 h -1 v -1 h -1 v -1 h -1 v -1 h -2 v -1 h -1 v -1 h -1 v -1 h -1 v -1 h -1 v -1 h -1 v -1 h -1 v -1 h -1 v -1 h -1 v -1 h -1 v -1 h -1 v -1 h -1 v -1 h -1 v -1 h -1 v -1 h -1 v -1 h -1 v -1 h -1 v -1 h -1 v -1 h -1 v -1 h -1 v -1 h -1 v -1 h -1 v -1 h -1 v -1 h -2 v -1 h -1 v -1 h -1 v -1 h -1 v -1 h -1 v -1 h -1 v -1 h -1 v -1 h -1 v -1 h -1 v -1 h -1 v -1 h -1 v -1 h -1 v -1 h -1 v -1 h -1 v -1 h -1 v -1 h -2 v -1 h -1 v -1 h -1 v -1 h -1 v -1 h -1 v -1 h -1 v -1 h -1 v -1 h -1 v -1 h -1 v -1 h -2 v -1 h -1 v -1 h -1 v -1 h -1 v -1 h -1 v -1 h -1 v -1 h -1 v -1 h -1 v -1 h -1 v -1 h -2 v -1 h -1 v -1 h -1 v -1 h -1 v -1 h -1 v -1 h -1 v -1 h -1 v -1 h -1 v -1 h -2 v -1 h -1 v -1 h -1 v -1 h -1 v -1 h -1 v -1 h -1 v -1 h -1 v -1 h -1 v -1 h -1 v -1 h -2 v -1 h -1 v -1 h -1 v -1 h -1 v -1 h -1 v -1 h -1 v -1 h -1 v -1 h -1 v -1 h -1 v -1 h -2 v -1 h -1 v -1 h -1 v -1 h -1 v -1 h -1 v -1 h -2 v -1 h -1 v -1 h -1 v -1 h -1 v -1 h -1 v -1 h -2 v -1 h -1 v -1 h -1 v -1 h -1 v -1 h -1 v -1 h -1 v -1 h -2 v -1 h -1 v -1 h -1 v -1 h -1 v -1 h -1 v -1 h -2 v -1 h -1 v -1 h -1 v -1 h -1 v -1 h -1 v -1 h -2 v -1 h -1 v -1 h -1 v -1 h -1 v -1 h -1 v -1 h -2 v -1 h -1 v -1 h -1 v -1 h -1 v -1 h -1 v -1 h -1 v -1 h -2 v -1 h -1 v -1 h -1 v -1 h -1 v -1 h -1 v -1 h -2 v -1 h -1 v -1 h -1 v -1 h -1 v -1 h -1 v -1 h -2 v -1 h -1 v -1 h -1 v -1 h -2 v -1 h -1 v -1 h -1 v -1 h -1 v -1 h -2 v -1 h -1 v -1 h -1 v -1 h -1 v -1 h -2 v -1 h -1 v -1 h -1 v -1 h -2 v -1 h -1 v -1 h -1 v -1 h -1 v -1 h -2 v -1 h -1 v -1 h -1 v -1 h -1 v -1 h -2 v -1 h -1 v -1 h -1 v -1 h -1 v -1 h -2 v -1 h -1 v -1 h -1 v -1 h -2 v -1 h -1 v -1 h -1 v -1 h -1 v -1 h -2 v -1 h -1 v -1 h -1 v -1 h -1 v -1 h -2 v -1 h -1 v -1 h -1 v -1 h -2 v -1 h -1 v -1 h -1 v -1 h -1 v -1 h -2 v -1 h -1 v -1 h -2 v -1 h -1 v -1 h -1 v -1 h -2 v -1 h -1 v -1 h -1 v -1 h -2 v -1 h -1 v -1 h -1 v -1 h -2 v -1 h -1 v -1 h -1 v -1 h -2 v -1 h -1 v -1 h -2 v -1 h -1 v -1 h -1 v -1 h -2 v -1 h -1 v -1 h -1 v -1 h -2 v -1 h -1 v -1 h -1 v -1 h -2 v -1 h -1 v -1 h -2 v -1 h -1 v -1 h -1 v -1 h -2 v -1 h -1 v -1 h -1 v -1 h -2 v -1 h -1 v -1 h -1 v -1 h -2 v -1 h -1 v -1 h -1 v -1 h -2 v -1 h -1 v -1 h -2 v -1 h -1 v -1 h -2 v -1 h -1 v -1 h -1 v -1 h -2 v -1 h -1 v -1 h -2 v -1 h -1 v -1 h -2 v -1 h -1 v -1 h -2 v -1 h -1 v -1 h -2 v -1 h -1 v -1 h -1 v -1 h -2 v -1 h -1 v -1 h -2 v -1 h -1 v -1 h -2 v -1 h -1 v -1 h -2 v -1 h -1 v -1 h -2 v -1 h -1 v -1 h -1 v -1 h -2 v -1 h -1 v -1 h -2 v -1 h -1 v -1 h -2 v -1 h -1 v -1 h -2 v -1 h -1 v -1 h -2 v -1 h -1 v -1 h -2 v -1 h -1 v -1 h -1 v -1 h -2 v -1 h -1 v -1 h -2 v -1 h -2 v -1 h -1 v -1 h -2 v -1 h -1 v -1 h -2 v -1 h -1 v -1 h -2 v -1 h -2 v -1 h -1 v -1 h -2 v -1 h -1 v -1 h -2 v -1 h -1 v -1 h -2 v -1 h -1 v -1 h -2 v -1 h -2 v -1 h -1 v -1 h -2 v -1 h -1 v -1 h -2 v -1 h -1 v -1 h -2 v -1 h -2 v -1 h -1 v -1 h -2 v -1 h -1 v -1 h -2 v -1 h -1 v -1 h -2 v -1 h -1 v -1 h -2 v -1 h -2 v -1 h -1 v -1 h -2 v -1 h -1 v -1 h -2 v -1 h -2 v -1 h -1 v -1 h -2 v -1 h -2 v -1 h -1 v -1 h -2 v -1 h -2 v -1 h -1 v -1 h -2 v -1 h -2 v -1 h -1 v -1 h -2 v -1 h -2 v -1 h -1 v -1 h -2 v -1 h -2 v -1 h -1 v -1 h -2 v -1 h -2 v -1 h -2 v -1 h -1 v -1 h -2 v -1 h -2 v -1 h -1 v -1 h -2 v -1 h -2 v -1 h -1 v -1 h -2 v -1 h -2 v -1 h -1 v -1 h -2 v -1 h -2 v -1 h -1 v -1 h -2 v -1 h -2 v -1 h -2 v -1 h -1 v -1 h -2 v -1 h -2 v -1 h -2 v -1 h -2 v -1 h -1 v -1 h -2 v -1 h -2 v -1 h -2 v -1 h -2 v -1 h -1 v -1 h -2 v -1 h -2 v -1 h -2 v -1 h -2 v -1 h -1 v -1 h -2 v -1 h -2 v -1 h -2 v -1 h -2 v -1 h -1 v -1 h -2 v -1 h -2 v -1 h -2 v -1 h -2 v -1 h -1 v -1 h -2 v -1 h -2 v -1 h -2 v -1 h -2 v -1 h -2 v -1 h -1 v -1 h -2 v -1 h -2 v -1 h -2 v -1 h -2 v -1 h -2 v -1 h -2 v -1 h -2 v -1 h -2 v -1 h -2 v -1 h -2 v -1 h -2 v -1 h -2 v -1 h -2 v -1 h -2 v -1 h -1 v -1 h -2 v -1 h -2 v -1 h -2 v -1 h -2 v -1 h -2 v -1 h -2 v -1 h -2 v -1 h -2 v -1 h -2 v -1 h -2 v -1 h -2 v -1 h -2 v -1 h -2 v -1 h -2 v -1 h -2 v -1 h -2 v -1 h -2 v -1 h -2 v -1 h -2 v -1 h -2 v -1 h -2 v -1 h -2 v -1 h -2 v -1 h -2 v -1 h -2 v -1 h -3 v -1 h -2 v -1 h -2 v -1 h -2 v -1 h -2 v -1 h -2 v -1 h -2 v -1 h -2 v -1 h -2 v -1 h -2 v -1 h -3 v -1 h -2 v -1 h -2 v -1 h -2 v -1 h -2 v -1 h -2 v -1 h -2 v -1 h -2 v -1 h -2 v -1 h -3 v -1 h -2 v -1 h -2 v -1 h -2 v -1 h -2 v -1 h -3 v -1 h -2 v -1 h -2 v -1 h -2 v -1 h -3 v -1 h -2 v -1 h -2 v -1 h -3 v -1 h -2 v -1 h -2 v -1 h -3 v -1 h -2 v -1 h -2 v -1 h -2 v -1 h -3 v -1 h -2 v -1 h -2 v -1 h -3 v -1 h -2 v -1 h -2 v -1 h -2 v -1 h -3 v -1 h -2 v -1 h -2 v -1 h -3 v -1 h -2 v -1 h -2 v -1 h -3 v -1 h -2 v -1 h -3 v -1 h -2 v -1 h -3 v -1 h -2 v -1 h -3 v -1 h -2 v -1 h -3 v -1 h -2 v -1 h -3 v -1 h -2 v -1 h -3 v -1 h -2 v -1 h -3 v -1 h -2 v -1 h -3 v -1 h -2 v -1 h -3 v -1 h -3 v -1 h -2 v -1 h -3 v -1 h -2 v -1 h -3 v -1 h -2 v -1 h -3 v -1 h -3 v -1 h -2 v -1 h -3 v -1 h -3 v -1 h -3 v -1 h -2 v -1 h -3 v -1 h -3 v -1 h -3 v -1 h -2 v -1 h -3 v -1 h -3 v -1 h -3 v -1 h -2 v -1 h -3 v -1 h -3 v -1 h -3 v -1 h -2 v -1 h -3 v -1 h -3 v -1 h -3 v -1 h -2 v -1 h -3 v -1 h -3 v -1 h -3 v -1 h -3 v -1 h -3 v -1 h -3 v -1 h -3 v -1 h -3 v -1 h -3 v -1 h -3 v -1 h -3 v -1 h -4 v -1 h -3 v -1 h -3 v -1 h -3 v -1 h -3 v -1 h -3 v -1 h -3 v -1 h -3 v -1 h -3 v -1 h -3 v -1 h -3 v -1 h -3 v -1 h -4 v -1 h -3 v -1 h -3 v -1 h -4 v -1 h -3 v -1 h -4 v -1 h -3 v -1 h -3 v -1 h -4 v -1 h -3 v -1 h -3 v -1 h -4 v -1 h -3 v -1 h -4 v -1 h -3 v -1 h -3 v -1 h -4 v -1 h -3 v -1 h -4 v -1 h -3 v -1 h -4 v -1 h -4 v -1 h -4 v -1 h -4 v -1 h -3 v -1 h -4 v -1 h -4 v -1 h -4 v -1 h -4 v -1 h -4 v -1 h -3 v -1 h -4 v -1 h -4 v -1 h -4 v -1 h -4 v -1 h -3 v -1 h -5 v -1 h -4 v -1 h -4 v -1 h -5 v -1 h -4 v -1 h -4 v -1 h -5 v -1 h -4 v -1 h -4 v -1 h -5 v -1 h -4 v -1 h -4 v -1 h -5 v -1 h -4 v -1 h -4 v -1 h -5 v -1 h -5 v -1 h -5 v -1 h -5 v -1 h -5 v -1 h -5 v -1 h -5 v -1 h -5 v -1 h -5 v -1 h -5 v -1 h -5 v -1 h -5 v -1 h -5 v -1 h -5 v -1 h -6 v -1 h -6 v -1 h -6 v -1 h -6 v -1 h -6 v -1 h -6 v -1 h -6 v -1 h -6 v -1 h -6 v -1 h -6 v -1 h -6 v -1 h -7 v -1 h -7 v -1 h -8 v -1 h -7 v -1 h -7 v -1 h -8 v -1 h -7 v -1 h -7 v -1 h -8 v -1 h -8 v -1 h -9 v -1 h -10 v -1 h -9 v -1 h -10 v -1 h -9 v -1 h -9 v -1 h -10 v -1 h -13 v -1 h -14 v -1 h -13 v -1 h -13 v -1 h -14 v -1 h -21 v -1 h -22 v -1 h -22 v -1 h -59 v -1"
               style="fill:url(#linearGradient34);fill-opacity:1;fill-rule:nonzero;stroke:none"
               id="path36" /></g></g></g><g
            id="g38"><g
           id="g40"
           clip-path="url(#clipPath44)"><path
             d="m 15663,4585.37 v 0 L 11556.4,6311.56 18692.2,5520.61 15663,4585.37"
             style="fill:url(#linearGradient52);fill-opacity:1;fill-rule:nonzero;stroke:none"
             id="path54" /></g></g><g
            id="g56"><g
           id="g58"
           clip-path="url(#clipPath62)"><path
             d="m 11556.4,0 v 2483.13 l 3260.2,1382.75 908.2,385.77 364.3,154.71 -364.3,-154.71 3.5,-5.56 366.3,157.5 2597.6,1117.02 h 0.7 V 3274.06 l -0.7,2246.55 L 11556.4,0"
             style="fill:url(#linearGradient70);fill-opacity:1;fill-rule:nonzero;stroke:none"
             id="path72" /></g></g><g
            id="g74"><g
           id="g76"
           clip-path="url(#clipPath80)"><path
             d="m 16089.1,4406.36 v 0 l -238,99.9 -188.1,79.11 3029.2,935.24 -2414.4,-1030.99 4.8,-1.39 -193.5,-81.87"
             style="fill:url(#linearGradient88);fill-opacity:1;fill-rule:nonzero;stroke:none"
             id="path90" /></g></g><g
            id="g92"><g
           id="g94"
           clip-path="url(#clipPath98)"><path
             d="m 15728.3,4246.09 -3.5,5.56 364.3,154.71 193.5,81.87 -4.8,1.39 2414.4,1030.99 -2597.6,-1117.02 -366.3,-157.5 m 2963.9,1274.52 v 0"
             style="fill:url(#linearGradient106);fill-opacity:1;fill-rule:nonzero;stroke:none"
             id="path108" /></g></g><g
            id="g110"><g
           id="g112"
           clip-path="url(#clipPath116)"><path
             d="m 3029.86,4585.37 v 0 L 7136.52,6311.56 0.695313,5520.61 7136.52,8812.74 V 6311.56 L 3029.86,4585.37"
             style="fill:url(#linearGradient124);fill-opacity:1;fill-rule:nonzero;stroke:none"
             id="path126" /></g></g><g
            id="g128"><g
           id="g130"
           clip-path="url(#clipPath134)"><path
             d="M 7136.52,0 0,3274.06 V 5520.61 H 0.695313 L 7136.52,0"
             style="fill:url(#linearGradient142);fill-opacity:1;fill-rule:nonzero;stroke:none"
             id="path144" /></g></g><g
            id="g146"><g
           id="g148"
           clip-path="url(#clipPath152)"><path
             d="m 2611.16,4409.42 h -0.01 l 418.64,175.97 0.07,-0.02 -188.01,-79.11 -230.69,-96.84"
             style="fill:url(#linearGradient160);fill-opacity:1;fill-rule:nonzero;stroke:none"
             id="path162" /></g></g><g
            id="g164"><g
           id="g166"
           clip-path="url(#clipPath170)"><path
             d="m 18692.2,5520.61 -7135.8,790.95 v 2501.18 l 7135.8,-3292.13"
             style="fill:url(#linearGradient178);fill-opacity:1;fill-rule:nonzero;stroke:none"
             id="path180" /></g></g><g
            id="g182"><g
           id="g184"
           clip-path="url(#clipPath188)"><path
             d="m 11556.4,0 7135.8,5520.61 0.7,-2246.55 L 11556.4,0"
             style="fill:url(#linearGradient196);fill-opacity:1;fill-rule:nonzero;stroke:none"
             id="path198" /></g></g><path
            d="m 7136.52,2483.13 -3260.2,1382.75 -908.2,385.77 -364.25,154.71 7.29,3.06 4525.36,-1926.29"
            style="fill:#ccccc9;fill-opacity:1;fill-rule:nonzero;stroke:none"
            id="path200"/><g
            id="g202"><g
           id="g204"
           clip-path="url(#clipPath208)"><path
             d="M 7136.52,0 V 0 L 0.695313,5520.61 2598.32,4403.59 l 366.33,-157.5 3.47,5.56 -364.25,154.71 364.25,-154.71 908.2,-385.77 3260.2,-1382.75 V 0"
             style="fill:url(#linearGradient216);fill-opacity:1;fill-rule:nonzero;stroke:none"
             id="path218" /></g></g><g
            id="g220"><g
           id="g222"
           clip-path="url(#clipPath226)"><path
             d="m 2603.87,4406.36 7.28,3.06 h 0.01 l -7.29,-3.06 m 0,0 -193.58,81.87 1.39,0.4 192.19,-82.27"
             style="fill:url(#linearGradient234);fill-opacity:1;fill-rule:nonzero;stroke:none"
             id="path236" /></g></g><g
            id="g238"><g
           id="g240"
           clip-path="url(#clipPath244)"><path
             d="M 2964.65,4246.09 2598.32,4403.59 0.695313,5520.61 2411.68,4488.63 l -1.39,-0.4 193.58,-81.87 364.25,-154.71 -3.47,-5.56 M 0.695313,5520.61 v 0"
             style="fill:url(#linearGradient252);fill-opacity:1;fill-rule:nonzero;stroke:none"
             id="path254" /></g></g><g
            id="g256"><g
           id="g258"
           clip-path="url(#clipPath262)"><path
             d="M 3029.86,4585.37 0.695313,5520.61 7136.52,6311.56 3029.79,4585.39"
             style="fill:url(#linearGradient270);fill-opacity:1;fill-rule:nonzero;stroke:none"
             id="path272" /></g></g><g
            id="g274"><g
           id="g276"
           clip-path="url(#clipPath280)"><path
             d="M 2611.15,4409.42 0.695313,5520.61 3029.86,4585.37 2611.15,4409.42"
             style="fill:url(#linearGradient288);fill-opacity:1;fill-rule:nonzero;stroke:none"
             id="path290" /></g></g><g
            id="g292"><g
           id="g294"
           clip-path="url(#clipPath298)"><path
             d="m 2603.87,4406.36 v 0 l -192.19,82.27 3.47,0.99 L 0.695313,5520.61 2611.15,4409.42 l -7.28,-3.06"
             style="fill:url(#linearGradient306);fill-opacity:1;fill-rule:nonzero;stroke:none"
             id="path308" /></g></g><g
            id="g310"><g
           id="g312"
           clip-path="url(#clipPath316)"><path
             d="m 2603.87,4406.36 v 0 M 2411.68,4488.63 0.695313,5520.61 2415.15,4489.62 l -3.47,-0.99"
             style="fill:url(#linearGradient324);fill-opacity:1;fill-rule:nonzero;stroke:none"
             id="path326" /></g></g><path
            d="m 23805.4,3911.51 c -213,-213.05 -588.3,-340.12 -872.7,-340.12 -832.2,0 -1111.2,588.85 -1116.1,1106.32 -4.8,517.47 309.3,1141.45 1116.1,1141.45 284.4,0 593.7,-85.98 806.7,-294.15 l 497.5,492.05 c -365.5,360.12 -817,548.3 -1304.2,548.3 -1303.7,0 -1902.8,-964.11 -1897.4,-1882.79 4.9,-968.96 542.9,-1841.68 1897.4,-1841.68 527.7,0 999.8,162.22 1365.3,522.33 l -492.6,548.29"
            style="fill:#231f20;fill-opacity:1;fill-rule:nonzero;stroke:none"
            id="path328"/><path
            d="M 28027.3,6483.71 27129.2,5073.52 26277,6483.71 h -913.2 v -40.56 l 1359.9,-2100.68 v -1410.2 h 791 v 1410.2 l 1421,2100.68 v 40.56 h -908.4"
            style="fill:#231f20;fill-opacity:1;fill-rule:nonzero;stroke:none"
            id="path330"/><path
            d="m 32502.9,4170.51 c 680.2,243.32 817,654.27 821.9,1116.05 0,623.99 -457,1197.15 -1314.5,1197.15 H 30325.9 V 2932.27 h 792.2 v 2871.75 h 892.2 c 370.9,0 528.2,-294.69 533.1,-538.02 0,-223.3 -157.3,-496.91 -522.3,-496.91 h -840.3 l 1418.9,-1836.82 h 877.5 v 60.56 l -974.3,1177.68"
            style="fill:#231f20;fill-opacity:1;fill-rule:nonzero;stroke:none"
            id="path332"/><g
            id="g334"><g
           id="g336"
           clip-path="url(#clipPath340)"><path
             d="m 35019.9,6483.71 v -785.89 h 786.2 v 785.89 h -786.2"
             style="fill:url(#linearGradient348);fill-opacity:1;fill-rule:nonzero;stroke:none"
             id="path350" /></g></g><path
            d="M 35019.9,5482.33 V 2932.27 h 786.2 v 2550.06 h -786.2"
            style="fill:#231f20;fill-opacity:1;fill-rule:nonzero;stroke:none"
            id="path352"/><path
            d="m 38404.3,3657.92 v 2825.79 h -791.6 V 2932.27 H 40180 v 725.65 h -1775.7"
            style="fill:#231f20;fill-opacity:1;fill-rule:nonzero;stroke:none"
            id="path354"/></g></g></svg>
